<?xml version="1.0" encoding="utf-8" standalone="no"?>
<!DOCTYPE svg PUBLIC "-//W3C//DTD SVG 1.1//EN"
  "http://www.w3.org/Graphics/SVG/1.1/DTD/svg11.dtd">
<svg xmlns:xlink="http://www.w3.org/1999/xlink" width="460.8pt" height="345.6pt" viewBox="0 0 460.8 345.6" xmlns="http://www.w3.org/2000/svg" version="1.1">
 <metadata>
  <rdf:RDF xmlns:dc="http://purl.org/dc/elements/1.1/" xmlns:cc="http://creativecommons.org/ns#" xmlns:rdf="http://www.w3.org/1999/02/22-rdf-syntax-ns#">
   <cc:Work>
    <dc:type rdf:resource="http://purl.org/dc/dcmitype/StillImage"/>
    <dc:date>2023-12-08T20:00:58.339559</dc:date>
    <dc:format>image/svg+xml</dc:format>
    <dc:creator>
     <cc:Agent>
      <dc:title>Matplotlib v3.7.2, https://matplotlib.org/</dc:title>
     </cc:Agent>
    </dc:creator>
   </cc:Work>
  </rdf:RDF>
 </metadata>
 <defs>
  <style type="text/css">*{stroke-linejoin: round; stroke-linecap: butt}</style>
 </defs>
 <g id="figure_1">
  <g id="patch_1">
   <path d="M 0 345.6 
L 460.8 345.6 
L 460.8 0 
L 0 0 
z
" style="fill: #ffffff"/>
  </g>
  <g id="axes_1">
   <g id="patch_2">
    <path d="M 259.655423 195.80556 
L 261.511335 210.106753 
L 261.511335 210.106753 
L 228.01895 214.768357 
L 228.01895 214.768357 
L 233.005697 203.119689 
L 233.005697 203.119689 
L 259.655423 195.80556 
z
" clip-path="url(#p847a6624c1)" style="fill: #808080; opacity: 0.05; stroke: #808080; stroke-linejoin: miter"/>
   </g>
   <g id="patch_3">
    <path d="M 261.511335 210.106753 
L 263.346894 231.725525 
L 263.346894 231.725525 
L 262.963555 235.999071 
L 262.963555 235.999071 
L 262.745173 237.408808 
L 262.745173 237.408808 
L 242.926479 254.020593 
L 242.926479 254.020593 
L 231.371367 253.973938 
L 231.371367 253.973938 
L 221.047749 253.943365 
L 221.047749 253.943365 
L 221.092844 243.55497 
L 221.092844 243.55497 
L 221.125436 236.052313 
L 221.125436 236.052313 
L 221.131957 234.551788 
L 221.131957 234.551788 
L 214.82565 215.127194 
L 214.82565 215.127194 
L 228.01895 214.768357 
L 228.01895 214.768357 
L 261.511335 210.106753 
z
" clip-path="url(#p847a6624c1)" style="fill: #808080; opacity: 0.05; stroke: #808080; stroke-linejoin: miter"/>
   </g>
   <g id="patch_4">
    <path d="M 262.745173 237.408808 
L 258.142172 281.62457 
L 258.142172 281.62457 
L 254.709228 281.64192 
L 254.709228 281.64192 
L 236.505849 281.681865 
L 236.505849 281.681865 
L 223.062457 281.655136 
L 223.062457 281.655136 
L 222.979848 280.615917 
L 222.979848 280.615917 
L 222.556004 274.681007 
L 222.556004 274.681007 
L 222.024197 267.360488 
L 222.024197 267.360488 
L 221.047749 253.943365 
L 221.047749 253.943365 
L 231.371367 253.973938 
L 231.371367 253.973938 
L 242.926479 254.020593 
L 242.926479 254.020593 
L 262.745173 237.408808 
z
" clip-path="url(#p847a6624c1)" style="fill: #808080; opacity: 0.05; stroke: #808080; stroke-linejoin: miter"/>
   </g>
   <g id="patch_5">
    <path d="M 223.062457 281.655136 
L 236.505849 281.681865 
L 236.505849 281.681865 
L 225.420738 288.589362 
L 225.420738 288.589362 
L 218.157949 293.130959 
L 218.157949 293.130959 
L 214.367469 295.488 
L 214.367469 295.488 
L 216.484984 292.152477 
L 216.484984 292.152477 
L 218.715555 288.585507 
L 218.715555 288.585507 
L 223.062457 281.655136 
z
" clip-path="url(#p847a6624c1)" style="fill: #808080; opacity: 0.05; stroke: #808080; stroke-linejoin: miter"/>
   </g>
   <g id="patch_6">
    <path d="M 250.168774 53.568 
L 272.35402 57.110232 
L 272.35402 57.110232 
L 277.300728 90.330451 
L 277.300728 90.330451 
L 269.92438 96.593966 
L 269.92438 96.593966 
L 273.472355 106.972455 
L 273.472355 106.972455 
L 267.96757 150.312332 
L 267.96757 150.312332 
L 267.143835 156.783371 
L 267.143835 156.783371 
L 265.38328 167.186122 
L 265.38328 167.186122 
L 249.217649 167.921443 
L 249.217649 167.921443 
L 243.302596 152.330471 
L 243.302596 152.330471 
L 229.293963 150.77985 
L 229.293963 150.77985 
L 202.145402 150.617645 
L 202.145402 150.617645 
L 195.019272 127.938481 
L 195.019272 127.938481 
L 200.513125 107.774121 
L 200.513125 107.774121 
L 205.457595 107.175358 
L 205.457595 107.175358 
L 215.509393 100.971374 
L 215.509393 100.971374 
L 225.306115 94.899874 
L 225.306115 94.899874 
L 237.681112 74.325778 
L 237.681112 74.325778 
L 240.565636 69.591111 
L 240.565636 69.591111 
L 245.581057 61.224593 
L 245.581057 61.224593 
L 250.168774 53.568 
z
" clip-path="url(#p847a6624c1)" style="fill: #ffa500; opacity: 0.1; stroke: #ffa500; stroke-linejoin: miter"/>
   </g>
   <g id="patch_7">
    <path d="M 229.293963 150.77985 
L 243.302596 152.330471 
L 243.302596 152.330471 
L 249.217649 167.921443 
L 249.217649 167.921443 
L 265.38328 167.186122 
L 265.38328 167.186122 
L 262.032725 184.640049 
L 262.032725 184.640049 
L 251.703784 184.695304 
L 251.703784 184.695304 
L 232.47127 169.484436 
L 232.47127 169.484436 
L 221.941219 167.60838 
L 221.941219 167.60838 
L 206.549778 164.855834 
L 206.549778 164.855834 
L 202.145402 150.617645 
L 202.145402 150.617645 
L 229.293963 150.77985 
z
" clip-path="url(#p847a6624c1)" style="fill: #ffa500; opacity: 0.1; stroke: #ffa500; stroke-linejoin: miter"/>
   </g>
   <g id="line2d_1">
    <path d="M 259.655423 195.80556 
L 261.511335 210.106753 
L 261.511335 210.106753 
L 228.01895 214.768357 
L 228.01895 214.768357 
L 233.005697 203.119689 
L 233.005697 203.119689 
L 259.655423 195.80556 
L 259.655423 195.80556 
" clip-path="url(#p847a6624c1)" style="fill: none; stroke: #808080; stroke-width: 0.5; stroke-linecap: square"/>
   </g>
   <g id="line2d_2">
    <path d="M 261.511335 210.106753 
L 263.346894 231.725525 
L 263.346894 231.725525 
L 262.963555 235.999071 
L 262.963555 235.999071 
L 262.745173 237.408808 
L 262.745173 237.408808 
L 242.926479 254.020593 
L 242.926479 254.020593 
L 231.371367 253.973938 
L 231.371367 253.973938 
L 221.047749 253.943365 
L 221.047749 253.943365 
L 221.092844 243.55497 
L 221.092844 243.55497 
L 221.125436 236.052313 
L 221.125436 236.052313 
L 221.131957 234.551788 
L 221.131957 234.551788 
L 214.82565 215.127194 
L 214.82565 215.127194 
L 228.01895 214.768357 
L 228.01895 214.768357 
L 261.511335 210.106753 
L 261.511335 210.106753 
" clip-path="url(#p847a6624c1)" style="fill: none; stroke: #808080; stroke-width: 0.5; stroke-linecap: square"/>
   </g>
   <g id="line2d_3">
    <path d="M 262.745173 237.408808 
L 258.142172 281.62457 
L 258.142172 281.62457 
L 254.709228 281.64192 
L 254.709228 281.64192 
L 236.505849 281.681865 
L 236.505849 281.681865 
L 223.062457 281.655136 
L 223.062457 281.655136 
L 222.979848 280.615917 
L 222.979848 280.615917 
L 222.556004 274.681007 
L 222.556004 274.681007 
L 222.024197 267.360488 
L 222.024197 267.360488 
L 221.047749 253.943365 
L 221.047749 253.943365 
L 231.371367 253.973938 
L 231.371367 253.973938 
L 242.926479 254.020593 
L 242.926479 254.020593 
L 262.745173 237.408808 
L 262.745173 237.408808 
" clip-path="url(#p847a6624c1)" style="fill: none; stroke: #808080; stroke-width: 0.5; stroke-linecap: square"/>
   </g>
   <g id="line2d_4">
    <path d="M 223.062457 281.655136 
L 236.505849 281.681865 
L 236.505849 281.681865 
L 225.420738 288.589362 
L 225.420738 288.589362 
L 218.157949 293.130959 
L 218.157949 293.130959 
L 214.367469 295.488 
L 214.367469 295.488 
L 216.484984 292.152477 
L 216.484984 292.152477 
L 218.715555 288.585507 
L 218.715555 288.585507 
L 223.062457 281.655136 
L 223.062457 281.655136 
" clip-path="url(#p847a6624c1)" style="fill: none; stroke: #808080; stroke-width: 0.5; stroke-linecap: square"/>
   </g>
   <g id="line2d_5">
    <path d="M 250.168774 53.568 
L 272.35402 57.110232 
L 272.35402 57.110232 
L 277.300728 90.330451 
L 277.300728 90.330451 
L 269.92438 96.593966 
L 269.92438 96.593966 
L 273.472355 106.972455 
L 273.472355 106.972455 
L 267.96757 150.312332 
L 267.96757 150.312332 
L 267.143835 156.783371 
L 267.143835 156.783371 
L 265.38328 167.186122 
L 265.38328 167.186122 
L 249.217649 167.921443 
L 249.217649 167.921443 
L 243.302596 152.330471 
L 243.302596 152.330471 
L 229.293963 150.77985 
L 229.293963 150.77985 
L 202.145402 150.617645 
L 202.145402 150.617645 
L 195.019272 127.938481 
L 195.019272 127.938481 
L 200.513125 107.774121 
L 200.513125 107.774121 
L 205.457595 107.175358 
L 205.457595 107.175358 
L 215.509393 100.971374 
L 215.509393 100.971374 
L 225.306115 94.899874 
L 225.306115 94.899874 
L 237.681112 74.325778 
L 237.681112 74.325778 
L 240.565636 69.591111 
L 240.565636 69.591111 
L 245.581057 61.224593 
L 245.581057 61.224593 
L 250.168774 53.568 
L 250.168774 53.568 
" clip-path="url(#p847a6624c1)" style="fill: none; stroke: #ffa500; stroke-width: 0.5; stroke-linecap: square"/>
   </g>
   <g id="line2d_6">
    <path d="M 229.293963 150.77985 
L 243.302596 152.330471 
L 243.302596 152.330471 
L 249.217649 167.921443 
L 249.217649 167.921443 
L 265.38328 167.186122 
L 265.38328 167.186122 
L 262.032725 184.640049 
L 262.032725 184.640049 
L 251.703784 184.695304 
L 251.703784 184.695304 
L 232.47127 169.484436 
L 232.47127 169.484436 
L 221.941219 167.60838 
L 221.941219 167.60838 
L 206.549778 164.855834 
L 206.549778 164.855834 
L 202.145402 150.617645 
L 202.145402 150.617645 
L 229.293963 150.77985 
L 229.293963 150.77985 
" clip-path="url(#p847a6624c1)" style="fill: none; stroke: #ffa500; stroke-width: 0.5; stroke-linecap: square"/>
   </g>
   <g id="text_1">
    <!-- ALR -->
    <g transform="translate(224.543438 35.472) scale(0.12 -0.12)">
     <defs>
      <path id="DejaVuSans-41" d="M 2188 4044 
L 1331 1722 
L 3047 1722 
L 2188 4044 
z
M 1831 4666 
L 2547 4666 
L 4325 0 
L 3669 0 
L 3244 1197 
L 1141 1197 
L 716 0 
L 50 0 
L 1831 4666 
z
" transform="scale(0.015625)"/>
      <path id="DejaVuSans-4c" d="M 628 4666 
L 1259 4666 
L 1259 531 
L 3531 531 
L 3531 0 
L 628 0 
L 628 4666 
z
" transform="scale(0.015625)"/>
      <path id="DejaVuSans-52" d="M 2841 2188 
Q 3044 2119 3236 1894 
Q 3428 1669 3622 1275 
L 4263 0 
L 3584 0 
L 2988 1197 
Q 2756 1666 2539 1819 
Q 2322 1972 1947 1972 
L 1259 1972 
L 1259 0 
L 628 0 
L 628 4666 
L 2053 4666 
Q 2853 4666 3247 4331 
Q 3641 3997 3641 3322 
Q 3641 2881 3436 2590 
Q 3231 2300 2841 2188 
z
M 1259 4147 
L 1259 2491 
L 2053 2491 
Q 2509 2491 2742 2702 
Q 2975 2913 2975 3322 
Q 2975 3731 2742 3939 
Q 2509 4147 2053 4147 
L 1259 4147 
z
" transform="scale(0.015625)"/>
     </defs>
     <use xlink:href="#DejaVuSans-41"/>
     <use xlink:href="#DejaVuSans-4c" x="68.408203"/>
     <use xlink:href="#DejaVuSans-52" x="124.121094"/>
    </g>
   </g>
  </g>
 </g>
 <defs>
  <clipPath id="p847a6624c1">
   <rect x="190.905199" y="41.472" width="90.509601" height="266.112"/>
  </clipPath>
 </defs>
</svg>
