<?xml version="1.0" encoding="utf-8" standalone="no"?>
<!DOCTYPE svg PUBLIC "-//W3C//DTD SVG 1.1//EN"
  "http://www.w3.org/Graphics/SVG/1.1/DTD/svg11.dtd">
<svg xmlns:xlink="http://www.w3.org/1999/xlink" width="460.8pt" height="345.6pt" viewBox="0 0 460.8 345.6" xmlns="http://www.w3.org/2000/svg" version="1.1">
 <metadata>
  <rdf:RDF xmlns:dc="http://purl.org/dc/elements/1.1/" xmlns:cc="http://creativecommons.org/ns#" xmlns:rdf="http://www.w3.org/1999/02/22-rdf-syntax-ns#">
   <cc:Work>
    <dc:type rdf:resource="http://purl.org/dc/dcmitype/StillImage"/>
    <dc:date>2023-12-23T15:31:22.505807</dc:date>
    <dc:format>image/svg+xml</dc:format>
    <dc:creator>
     <cc:Agent>
      <dc:title>Matplotlib v3.7.2, https://matplotlib.org/</dc:title>
     </cc:Agent>
    </dc:creator>
   </cc:Work>
  </rdf:RDF>
 </metadata>
 <defs>
  <style type="text/css">*{stroke-linejoin: round; stroke-linecap: butt}</style>
 </defs>
 <g id="figure_1">
  <g id="patch_1">
   <path d="M 0 345.6 
L 460.8 345.6 
L 460.8 0 
L 0 0 
z
" style="fill: #ffffff"/>
  </g>
  <g id="axes_1">
   <g id="patch_2">
    <path d="M 259.655423 195.80556 
L 261.511335 210.106753 
L 261.511335 210.106753 
L 228.01895 214.768357 
L 228.01895 214.768357 
L 233.005697 203.119689 
L 233.005697 203.119689 
L 259.655423 195.80556 
z
" clip-path="url(#pac7ec64489)" style="fill: #808080; opacity: 0.05; stroke: #808080; stroke-linejoin: miter"/>
   </g>
   <g id="patch_3">
    <path d="M 261.511335 210.106753 
L 263.346894 231.725525 
L 263.346894 231.725525 
L 262.963555 235.999071 
L 262.963555 235.999071 
L 262.745173 237.408808 
L 262.745173 237.408808 
L 242.926479 254.020593 
L 242.926479 254.020593 
L 231.371367 253.973938 
L 231.371367 253.973938 
L 221.047749 253.943365 
L 221.047749 253.943365 
L 221.092844 243.55497 
L 221.092844 243.55497 
L 221.125436 236.052313 
L 221.125436 236.052313 
L 221.131957 234.551788 
L 221.131957 234.551788 
L 214.82565 215.127194 
L 214.82565 215.127194 
L 228.01895 214.768357 
L 228.01895 214.768357 
L 261.511335 210.106753 
z
" clip-path="url(#pac7ec64489)" style="fill: #808080; opacity: 0.05; stroke: #808080; stroke-linejoin: miter"/>
   </g>
   <g id="patch_4">
    <path d="M 262.745173 237.408808 
L 258.142172 281.62457 
L 258.142172 281.62457 
L 254.709228 281.64192 
L 254.709228 281.64192 
L 236.505849 281.681865 
L 236.505849 281.681865 
L 223.062457 281.655136 
L 223.062457 281.655136 
L 222.979848 280.615917 
L 222.979848 280.615917 
L 222.556004 274.681007 
L 222.556004 274.681007 
L 222.024197 267.360488 
L 222.024197 267.360488 
L 221.047749 253.943365 
L 221.047749 253.943365 
L 231.371367 253.973938 
L 231.371367 253.973938 
L 242.926479 254.020593 
L 242.926479 254.020593 
L 262.745173 237.408808 
z
" clip-path="url(#pac7ec64489)" style="fill: #808080; opacity: 0.05; stroke: #808080; stroke-linejoin: miter"/>
   </g>
   <g id="patch_5">
    <path d="M 223.062457 281.655136 
L 236.505849 281.681865 
L 236.505849 281.681865 
L 225.420738 288.589362 
L 225.420738 288.589362 
L 218.157949 293.130959 
L 218.157949 293.130959 
L 214.367469 295.488 
L 214.367469 295.488 
L 216.484984 292.152477 
L 216.484984 292.152477 
L 218.715555 288.585507 
L 218.715555 288.585507 
L 223.062457 281.655136 
z
" clip-path="url(#pac7ec64489)" style="fill: #808080; opacity: 0.05; stroke: #808080; stroke-linejoin: miter"/>
   </g>
   <g id="patch_6">
    <path d="M 250.168774 53.568 
L 272.35402 57.110232 
L 272.35402 57.110232 
L 277.300728 90.330451 
L 277.300728 90.330451 
L 269.92438 96.593966 
L 269.92438 96.593966 
L 273.472355 106.972455 
L 273.472355 106.972455 
L 267.96757 150.312332 
L 267.96757 150.312332 
L 267.143835 156.783371 
L 267.143835 156.783371 
L 265.38328 167.186122 
L 265.38328 167.186122 
L 249.217649 167.921443 
L 249.217649 167.921443 
L 243.302596 152.330471 
L 243.302596 152.330471 
L 229.293963 150.77985 
L 229.293963 150.77985 
L 202.145402 150.617645 
L 202.145402 150.617645 
L 195.019272 127.938481 
L 195.019272 127.938481 
L 200.513125 107.774121 
L 200.513125 107.774121 
L 205.457595 107.175358 
L 205.457595 107.175358 
L 215.509393 100.971374 
L 215.509393 100.971374 
L 225.306115 94.899874 
L 225.306115 94.899874 
L 237.681112 74.325778 
L 237.681112 74.325778 
L 240.565636 69.591111 
L 240.565636 69.591111 
L 245.581057 61.224593 
L 245.581057 61.224593 
L 250.168774 53.568 
z
" clip-path="url(#pac7ec64489)" style="fill: #ffa500; opacity: 0.05; stroke: #ffa500; stroke-linejoin: miter"/>
   </g>
   <g id="patch_7">
    <path d="M 229.293963 150.77985 
L 243.302596 152.330471 
L 243.302596 152.330471 
L 249.217649 167.921443 
L 249.217649 167.921443 
L 265.38328 167.186122 
L 265.38328 167.186122 
L 262.032725 184.640049 
L 262.032725 184.640049 
L 251.703784 184.695304 
L 251.703784 184.695304 
L 232.47127 169.484436 
L 232.47127 169.484436 
L 221.941219 167.60838 
L 221.941219 167.60838 
L 206.549778 164.855834 
L 206.549778 164.855834 
L 202.145402 150.617645 
L 202.145402 150.617645 
L 229.293963 150.77985 
z
" clip-path="url(#pac7ec64489)" style="fill: #ffa500; opacity: 0.05; stroke: #ffa500; stroke-linejoin: miter"/>
   </g>
   <g id="line2d_1">
    <path d="M 259.655423 195.80556 
L 261.511335 210.106753 
L 261.511335 210.106753 
L 228.01895 214.768357 
L 228.01895 214.768357 
L 233.005697 203.119689 
L 233.005697 203.119689 
L 259.655423 195.80556 
L 259.655423 195.80556 
" clip-path="url(#pac7ec64489)" style="fill: none; stroke: #808080; stroke-width: 0.5; stroke-linecap: square"/>
   </g>
   <g id="line2d_2">
    <path d="M 261.511335 210.106753 
L 263.346894 231.725525 
L 263.346894 231.725525 
L 262.963555 235.999071 
L 262.963555 235.999071 
L 262.745173 237.408808 
L 262.745173 237.408808 
L 242.926479 254.020593 
L 242.926479 254.020593 
L 231.371367 253.973938 
L 231.371367 253.973938 
L 221.047749 253.943365 
L 221.047749 253.943365 
L 221.092844 243.55497 
L 221.092844 243.55497 
L 221.125436 236.052313 
L 221.125436 236.052313 
L 221.131957 234.551788 
L 221.131957 234.551788 
L 214.82565 215.127194 
L 214.82565 215.127194 
L 228.01895 214.768357 
L 228.01895 214.768357 
L 261.511335 210.106753 
L 261.511335 210.106753 
" clip-path="url(#pac7ec64489)" style="fill: none; stroke: #808080; stroke-width: 0.5; stroke-linecap: square"/>
   </g>
   <g id="line2d_3">
    <path d="M 262.745173 237.408808 
L 258.142172 281.62457 
L 258.142172 281.62457 
L 254.709228 281.64192 
L 254.709228 281.64192 
L 236.505849 281.681865 
L 236.505849 281.681865 
L 223.062457 281.655136 
L 223.062457 281.655136 
L 222.979848 280.615917 
L 222.979848 280.615917 
L 222.556004 274.681007 
L 222.556004 274.681007 
L 222.024197 267.360488 
L 222.024197 267.360488 
L 221.047749 253.943365 
L 221.047749 253.943365 
L 231.371367 253.973938 
L 231.371367 253.973938 
L 242.926479 254.020593 
L 242.926479 254.020593 
L 262.745173 237.408808 
L 262.745173 237.408808 
" clip-path="url(#pac7ec64489)" style="fill: none; stroke: #808080; stroke-width: 0.5; stroke-linecap: square"/>
   </g>
   <g id="line2d_4">
    <path d="M 223.062457 281.655136 
L 236.505849 281.681865 
L 236.505849 281.681865 
L 225.420738 288.589362 
L 225.420738 288.589362 
L 218.157949 293.130959 
L 218.157949 293.130959 
L 214.367469 295.488 
L 214.367469 295.488 
L 216.484984 292.152477 
L 216.484984 292.152477 
L 218.715555 288.585507 
L 218.715555 288.585507 
L 223.062457 281.655136 
L 223.062457 281.655136 
" clip-path="url(#pac7ec64489)" style="fill: none; stroke: #808080; stroke-width: 0.5; stroke-linecap: square"/>
   </g>
   <g id="line2d_5">
    <path d="M 250.168774 53.568 
L 272.35402 57.110232 
L 272.35402 57.110232 
L 277.300728 90.330451 
L 277.300728 90.330451 
L 269.92438 96.593966 
L 269.92438 96.593966 
L 273.472355 106.972455 
L 273.472355 106.972455 
L 267.96757 150.312332 
L 267.96757 150.312332 
L 267.143835 156.783371 
L 267.143835 156.783371 
L 265.38328 167.186122 
L 265.38328 167.186122 
L 249.217649 167.921443 
L 249.217649 167.921443 
L 243.302596 152.330471 
L 243.302596 152.330471 
L 229.293963 150.77985 
L 229.293963 150.77985 
L 202.145402 150.617645 
L 202.145402 150.617645 
L 195.019272 127.938481 
L 195.019272 127.938481 
L 200.513125 107.774121 
L 200.513125 107.774121 
L 205.457595 107.175358 
L 205.457595 107.175358 
L 215.509393 100.971374 
L 215.509393 100.971374 
L 225.306115 94.899874 
L 225.306115 94.899874 
L 237.681112 74.325778 
L 237.681112 74.325778 
L 240.565636 69.591111 
L 240.565636 69.591111 
L 245.581057 61.224593 
L 245.581057 61.224593 
L 250.168774 53.568 
L 250.168774 53.568 
" clip-path="url(#pac7ec64489)" style="fill: none; stroke: #ffa500; stroke-width: 0.5; stroke-linecap: square"/>
   </g>
   <g id="line2d_6">
    <path d="M 229.293963 150.77985 
L 243.302596 152.330471 
L 243.302596 152.330471 
L 249.217649 167.921443 
L 249.217649 167.921443 
L 265.38328 167.186122 
L 265.38328 167.186122 
L 262.032725 184.640049 
L 262.032725 184.640049 
L 251.703784 184.695304 
L 251.703784 184.695304 
L 232.47127 169.484436 
L 232.47127 169.484436 
L 221.941219 167.60838 
L 221.941219 167.60838 
L 206.549778 164.855834 
L 206.549778 164.855834 
L 202.145402 150.617645 
L 202.145402 150.617645 
L 229.293963 150.77985 
L 229.293963 150.77985 
" clip-path="url(#pac7ec64489)" style="fill: none; stroke: #ffa500; stroke-width: 0.5; stroke-linecap: square"/>
   </g>
   <g id="text_1">
    <!-- Deister -->
    <g style="fill: #ff0000" transform="translate(222.301332 255.349947) scale(0.07 -0.07)">
     <defs>
      <path id="DejaVuSans-44" d="M 1259 4147 
L 1259 519 
L 2022 519 
Q 2988 519 3436 956 
Q 3884 1394 3884 2338 
Q 3884 3275 3436 3711 
Q 2988 4147 2022 4147 
L 1259 4147 
z
M 628 4666 
L 1925 4666 
Q 3281 4666 3915 4102 
Q 4550 3538 4550 2338 
Q 4550 1131 3912 565 
Q 3275 0 1925 0 
L 628 0 
L 628 4666 
z
" transform="scale(0.015625)"/>
      <path id="DejaVuSans-65" d="M 3597 1894 
L 3597 1613 
L 953 1613 
Q 991 1019 1311 708 
Q 1631 397 2203 397 
Q 2534 397 2845 478 
Q 3156 559 3463 722 
L 3463 178 
Q 3153 47 2828 -22 
Q 2503 -91 2169 -91 
Q 1331 -91 842 396 
Q 353 884 353 1716 
Q 353 2575 817 3079 
Q 1281 3584 2069 3584 
Q 2775 3584 3186 3129 
Q 3597 2675 3597 1894 
z
M 3022 2063 
Q 3016 2534 2758 2815 
Q 2500 3097 2075 3097 
Q 1594 3097 1305 2825 
Q 1016 2553 972 2059 
L 3022 2063 
z
" transform="scale(0.015625)"/>
      <path id="DejaVuSans-69" d="M 603 3500 
L 1178 3500 
L 1178 0 
L 603 0 
L 603 3500 
z
M 603 4863 
L 1178 4863 
L 1178 4134 
L 603 4134 
L 603 4863 
z
" transform="scale(0.015625)"/>
      <path id="DejaVuSans-73" d="M 2834 3397 
L 2834 2853 
Q 2591 2978 2328 3040 
Q 2066 3103 1784 3103 
Q 1356 3103 1142 2972 
Q 928 2841 928 2578 
Q 928 2378 1081 2264 
Q 1234 2150 1697 2047 
L 1894 2003 
Q 2506 1872 2764 1633 
Q 3022 1394 3022 966 
Q 3022 478 2636 193 
Q 2250 -91 1575 -91 
Q 1294 -91 989 -36 
Q 684 19 347 128 
L 347 722 
Q 666 556 975 473 
Q 1284 391 1588 391 
Q 1994 391 2212 530 
Q 2431 669 2431 922 
Q 2431 1156 2273 1281 
Q 2116 1406 1581 1522 
L 1381 1569 
Q 847 1681 609 1914 
Q 372 2147 372 2553 
Q 372 3047 722 3315 
Q 1072 3584 1716 3584 
Q 2034 3584 2315 3537 
Q 2597 3491 2834 3397 
z
" transform="scale(0.015625)"/>
      <path id="DejaVuSans-74" d="M 1172 4494 
L 1172 3500 
L 2356 3500 
L 2356 3053 
L 1172 3053 
L 1172 1153 
Q 1172 725 1289 603 
Q 1406 481 1766 481 
L 2356 481 
L 2356 0 
L 1766 0 
Q 1100 0 847 248 
Q 594 497 594 1153 
L 594 3053 
L 172 3053 
L 172 3500 
L 594 3500 
L 594 4494 
L 1172 4494 
z
" transform="scale(0.015625)"/>
      <path id="DejaVuSans-72" d="M 2631 2963 
Q 2534 3019 2420 3045 
Q 2306 3072 2169 3072 
Q 1681 3072 1420 2755 
Q 1159 2438 1159 1844 
L 1159 0 
L 581 0 
L 581 3500 
L 1159 3500 
L 1159 2956 
Q 1341 3275 1631 3429 
Q 1922 3584 2338 3584 
Q 2397 3584 2469 3576 
Q 2541 3569 2628 3553 
L 2631 2963 
z
" transform="scale(0.015625)"/>
     </defs>
     <use xlink:href="#DejaVuSans-44"/>
     <use xlink:href="#DejaVuSans-65" x="77.001953"/>
     <use xlink:href="#DejaVuSans-69" x="138.525391"/>
     <use xlink:href="#DejaVuSans-73" x="166.308594"/>
     <use xlink:href="#DejaVuSans-74" x="218.408203"/>
     <use xlink:href="#DejaVuSans-65" x="257.617188"/>
     <use xlink:href="#DejaVuSans-72" x="319.140625"/>
    </g>
   </g>
   <g id="text_2">
    <!-- ALR -->
    <g transform="translate(224.543438 35.472) scale(0.12 -0.12)">
     <defs>
      <path id="DejaVuSans-41" d="M 2188 4044 
L 1331 1722 
L 3047 1722 
L 2188 4044 
z
M 1831 4666 
L 2547 4666 
L 4325 0 
L 3669 0 
L 3244 1197 
L 1141 1197 
L 716 0 
L 50 0 
L 1831 4666 
z
" transform="scale(0.015625)"/>
      <path id="DejaVuSans-4c" d="M 628 4666 
L 1259 4666 
L 1259 531 
L 3531 531 
L 3531 0 
L 628 0 
L 628 4666 
z
" transform="scale(0.015625)"/>
      <path id="DejaVuSans-52" d="M 2841 2188 
Q 3044 2119 3236 1894 
Q 3428 1669 3622 1275 
L 4263 0 
L 3584 0 
L 2988 1197 
Q 2756 1666 2539 1819 
Q 2322 1972 1947 1972 
L 1259 1972 
L 1259 0 
L 628 0 
L 628 4666 
L 2053 4666 
Q 2853 4666 3247 4331 
Q 3641 3997 3641 3322 
Q 3641 2881 3436 2590 
Q 3231 2300 2841 2188 
z
M 1259 4147 
L 1259 2491 
L 2053 2491 
Q 2509 2491 2742 2702 
Q 2975 2913 2975 3322 
Q 2975 3731 2742 3939 
Q 2509 4147 2053 4147 
L 1259 4147 
z
" transform="scale(0.015625)"/>
     </defs>
     <use xlink:href="#DejaVuSans-41"/>
     <use xlink:href="#DejaVuSans-4c" x="68.408203"/>
     <use xlink:href="#DejaVuSans-52" x="124.121094"/>
    </g>
   </g>
  </g>
 </g>
 <defs>
  <clipPath id="pac7ec64489">
   <rect x="190.905199" y="41.472" width="90.509601" height="266.112"/>
  </clipPath>
 </defs>
</svg>
