<?xml version="1.0" encoding="utf-8" standalone="no"?>
<!DOCTYPE svg PUBLIC "-//W3C//DTD SVG 1.1//EN"
  "http://www.w3.org/Graphics/SVG/1.1/DTD/svg11.dtd">
<svg xmlns:xlink="http://www.w3.org/1999/xlink" width="460.8pt" height="345.6pt" viewBox="0 0 460.8 345.6" xmlns="http://www.w3.org/2000/svg" version="1.1">
 <metadata>
  <rdf:RDF xmlns:dc="http://purl.org/dc/elements/1.1/" xmlns:cc="http://creativecommons.org/ns#" xmlns:rdf="http://www.w3.org/1999/02/22-rdf-syntax-ns#">
   <cc:Work>
    <dc:type rdf:resource="http://purl.org/dc/dcmitype/StillImage"/>
    <dc:date>2023-12-08T20:00:57.873740</dc:date>
    <dc:format>image/svg+xml</dc:format>
    <dc:creator>
     <cc:Agent>
      <dc:title>Matplotlib v3.7.2, https://matplotlib.org/</dc:title>
     </cc:Agent>
    </dc:creator>
   </cc:Work>
  </rdf:RDF>
 </metadata>
 <defs>
  <style type="text/css">*{stroke-linejoin: round; stroke-linecap: butt}</style>
 </defs>
 <g id="figure_1">
  <g id="patch_1">
   <path d="M 0 345.6 
L 460.8 345.6 
L 460.8 0 
L 0 0 
z
" style="fill: #ffffff"/>
  </g>
  <g id="axes_1">
   <g id="patch_2">
    <path d="M 101.236034 136.028768 
L 124.233949 136.244151 
L 124.233949 136.244151 
L 138.288325 133.964229 
L 138.288325 133.964229 
L 156.958828 120.162214 
L 156.958828 120.162214 
L 186.05158 91.548507 
L 186.05158 91.548507 
L 206.492321 106.383682 
L 206.492321 106.383682 
L 168.939755 134.868977 
L 168.939755 134.868977 
L 162.039664 140.101662 
L 162.039664 140.101662 
L 151.699272 147.984213 
L 151.699272 147.984213 
L 148.011202 150.773318 
L 148.011202 150.773318 
L 128.24634 165.768501 
L 128.24634 165.768501 
L 109.459629 179.998 
L 109.459629 179.998 
L 110.797471 211.723449 
L 110.797471 211.723449 
L 111.374572 226.110681 
L 111.374572 226.110681 
L 93.266774 250.563209 
L 93.266774 250.563209 
L 92.121043 244.422884 
L 92.121043 244.422884 
L 90.512283 242.903319 
L 90.512283 242.903319 
L 87.076007 239.315546 
L 87.076007 239.315546 
L 83.230303 234.676543 
L 83.230303 234.676543 
L 77.023497 235.215777 
L 77.023497 235.215777 
L 73.832727 227.678583 
L 73.832727 227.678583 
L 82.417857 220.464098 
L 82.417857 220.464098 
L 86.997465 217.265824 
L 86.997465 217.265824 
L 104.608315 205.616477 
L 104.608315 205.616477 
L 99.222271 201.919138 
L 99.222271 201.919138 
L 94.352255 204.530845 
L 94.352255 204.530845 
L 93.66129 192.72611 
L 93.66129 192.72611 
L 95.211993 191.477043 
L 95.211993 191.477043 
L 110.091539 171.975802 
L 110.091539 171.975802 
L 110.163755 165.761673 
L 110.163755 165.761673 
L 110.281345 155.6467 
L 110.281345 155.6467 
L 101.236034 136.028768 
z
" clip-path="url(#pcee4dd6e1d)" style="fill: #808080; opacity: 0.05; stroke: #808080; stroke-linejoin: miter"/>
   </g>
   <g id="patch_3">
    <path d="M 168.140833 79.842113 
L 176.772988 83.590578 
L 176.772988 83.590578 
L 186.05158 91.548507 
L 186.05158 91.548507 
L 156.958828 120.162214 
L 156.958828 120.162214 
L 138.288325 133.964229 
L 138.288325 133.964229 
L 124.233949 136.244151 
L 124.233949 136.244151 
L 101.236034 136.028768 
L 101.236034 136.028768 
L 98.085666 129.182576 
L 98.085666 129.182576 
L 91.601436 121.743879 
L 91.601436 121.743879 
L 90.821285 117.286761 
L 90.821285 117.286761 
L 129.386336 96.826461 
L 129.386336 96.826461 
L 126.309633 90.219816 
L 126.309633 90.219816 
L 138.428759 91.414786 
L 138.428759 91.414786 
L 168.140833 79.842113 
z
" clip-path="url(#pcee4dd6e1d)" style="fill: #808080; opacity: 0.05; stroke: #808080; stroke-linejoin: miter"/>
   </g>
   <g id="patch_4">
    <path d="M 91.601436 121.743879 
L 98.085666 129.182576 
L 98.085666 129.182576 
L 101.236034 136.028768 
L 101.236034 136.028768 
L 110.281345 155.6467 
L 110.281345 155.6467 
L 110.163755 165.761673 
L 110.163755 165.761673 
L 110.091539 171.975802 
L 110.091539 171.975802 
L 95.211993 191.477043 
L 95.211993 191.477043 
L 81.987236 190.877713 
L 81.987236 190.877713 
L 90.729285 177.169754 
L 90.729285 177.169754 
L 91.601436 121.743879 
z
" clip-path="url(#pcee4dd6e1d)" style="fill: #808080; opacity: 0.05; stroke: #808080; stroke-linejoin: miter"/>
   </g>
   <g id="patch_5">
    <path d="M 81.987236 190.877713 
L 95.211993 191.477043 
L 95.211993 191.477043 
L 93.66129 192.72611 
L 93.66129 192.72611 
L 94.352255 204.530845 
L 94.352255 204.530845 
L 99.222271 201.919138 
L 99.222271 201.919138 
L 104.608315 205.616477 
L 104.608315 205.616477 
L 86.997465 217.265824 
L 86.997465 217.265824 
L 84.013119 201.569861 
L 84.013119 201.569861 
L 81.987236 190.877713 
z
" clip-path="url(#pcee4dd6e1d)" style="fill: #808080; opacity: 0.05; stroke: #808080; stroke-linejoin: miter"/>
   </g>
   <g id="patch_6">
    <path d="M 111.374572 226.110681 
L 125.85646 245.359189 
L 125.85646 245.359189 
L 93.614277 269.213887 
L 93.614277 269.213887 
L 93.899005 256.696386 
L 93.899005 256.696386 
L 93.988302 254.338509 
L 93.988302 254.338509 
L 93.266774 250.563209 
L 93.266774 250.563209 
L 111.374572 226.110681 
z
" clip-path="url(#pcee4dd6e1d)" style="fill: #808080; opacity: 0.05; stroke: #808080; stroke-linejoin: miter"/>
   </g>
   <g id="patch_7">
    <path d="M 109.459629 179.998 
L 110.797471 211.723449 
L 110.797471 211.723449 
L 128.24634 165.768501 
L 128.24634 165.768501 
L 109.459629 179.998 
z
" clip-path="url(#pcee4dd6e1d)" style="fill: #808080; opacity: 0.05; stroke: #808080; stroke-linejoin: miter"/>
   </g>
   <g id="patch_8">
    <path d="M 128.24634 165.768501 
L 148.011202 150.773318 
L 148.011202 150.773318 
L 151.699272 147.984213 
L 151.699272 147.984213 
L 162.039664 140.101662 
L 162.039664 140.101662 
L 168.939755 134.868977 
L 168.939755 134.868977 
L 206.492321 106.383682 
L 206.492321 106.383682 
L 209.893333 109.009483 
L 209.893333 109.009483 
L 230.716727 124.911142 
L 230.716727 124.911142 
L 237.753475 130.319219 
L 237.753475 130.319219 
L 248.476366 153.795592 
L 248.476366 153.795592 
L 255.981645 170.478757 
L 255.981645 170.478757 
L 246.13736 171.865461 
L 246.13736 171.865461 
L 235.135567 180.230834 
L 235.135567 180.230834 
L 208.857478 199.642305 
L 208.857478 199.642305 
L 204.369935 203.004756 
L 204.369935 203.004756 
L 199.878342 206.273805 
L 199.878342 206.273805 
L 186.750151 216.292166 
L 186.750151 216.292166 
L 175.767039 201.753701 
L 175.767039 201.753701 
L 164.064505 186.243352 
L 164.064505 186.243352 
L 134.884251 208.331565 
L 134.884251 208.331565 
L 111.374572 226.110681 
L 111.374572 226.110681 
L 110.797471 211.723449 
L 110.797471 211.723449 
L 128.24634 165.768501 
z
" clip-path="url(#pcee4dd6e1d)" style="fill: #808080; opacity: 0.05; stroke: #808080; stroke-linejoin: miter"/>
   </g>
   <g id="patch_9">
    <path d="M 377.346875 86.127943 
L 377.707695 100.867398 
L 377.707695 100.867398 
L 378.206914 121.275746 
L 378.206914 121.275746 
L 380.88328 147.575126 
L 380.88328 147.575126 
L 382.341257 161.924185 
L 382.341257 161.924185 
L 383.508717 173.557595 
L 383.508717 173.557595 
L 383.72961 175.594154 
L 383.72961 175.594154 
L 375.582512 189.45172 
L 375.582512 189.45172 
L 371.402538 196.583495 
L 371.402538 196.583495 
L 367.431584 203.254207 
L 367.431584 203.254207 
L 360.3814 215.344329 
L 360.3814 215.344329 
L 353.005216 227.978462 
L 353.005216 227.978462 
L 344.506556 237.133022 
L 344.506556 237.133022 
L 339.604809 242.399429 
L 339.604809 242.399429 
L 323.157045 243.780255 
L 323.157045 243.780255 
L 305.996059 251.577747 
L 305.996059 251.577747 
L 299.077565 245.867086 
L 299.077565 245.867086 
L 293.833442 238.40515 
L 293.833442 238.40515 
L 344.505686 207.913155 
L 344.505686 207.913155 
L 316.984929 185.082923 
L 316.984929 185.082923 
L 274.030714 210.370854 
L 274.030714 210.370854 
L 255.981645 170.478757 
L 255.981645 170.478757 
L 248.476366 153.795592 
L 248.476366 153.795592 
L 323.157368 114.25068 
L 323.157368 114.25068 
L 377.346875 86.127943 
z
" clip-path="url(#pcee4dd6e1d)" style="fill: #808080; opacity: 0.05; stroke: #808080; stroke-linejoin: miter"/>
   </g>
   <g id="patch_10">
    <path d="M 316.984929 185.082923 
L 344.505686 207.913155 
L 344.505686 207.913155 
L 293.833442 238.40515 
L 293.833442 238.40515 
L 274.030714 210.370854 
L 274.030714 210.370854 
L 316.984929 185.082923 
z
" clip-path="url(#pcee4dd6e1d)" style="fill: #808080; opacity: 0.05; stroke: #808080; stroke-linejoin: miter"/>
   </g>
   <g id="patch_11">
    <path d="M 269.612433 102.403827 
L 323.157368 114.25068 
L 323.157368 114.25068 
L 248.476366 153.795592 
L 248.476366 153.795592 
L 237.753475 130.319219 
L 237.753475 130.319219 
L 230.716727 124.911142 
L 230.716727 124.911142 
L 269.612433 102.403827 
z
" clip-path="url(#pcee4dd6e1d)" style="fill: #808080; opacity: 0.05; stroke: #808080; stroke-linejoin: miter"/>
   </g>
   <g id="patch_12">
    <path d="M 230.716727 124.911142 
L 237.753475 130.319219 
L 237.753475 130.319219 
L 248.476366 153.795592 
L 248.476366 153.795592 
L 255.981645 170.478757 
L 255.981645 170.478757 
L 274.030714 210.370854 
L 274.030714 210.370854 
L 235.135567 180.230834 
L 235.135567 180.230834 
L 229.683682 171.774069 
L 229.683682 171.774069 
L 224.073508 163.087169 
L 224.073508 163.087169 
L 220.179604 147.949699 
L 220.179604 147.949699 
L 223.176926 141.40775 
L 223.176926 141.40775 
L 230.716727 124.911142 
z
" clip-path="url(#pcee4dd6e1d)" style="fill: #808080; opacity: 0.05; stroke: #808080; stroke-linejoin: miter"/>
   </g>
   <g id="patch_13">
    <path d="M 377.707695 100.867398 
L 391.153009 99.800003 
L 391.153009 99.800003 
L 397.930601 99.255589 
L 397.930601 99.255589 
L 398.487273 120.752109 
L 398.487273 120.752109 
L 382.341257 161.924185 
L 382.341257 161.924185 
L 380.88328 147.575126 
L 380.88328 147.575126 
L 378.206914 121.275746 
L 378.206914 121.275746 
L 377.707695 100.867398 
z
" clip-path="url(#pcee4dd6e1d)" style="fill: #808080; opacity: 0.05; stroke: #808080; stroke-linejoin: miter"/>
   </g>
   <g id="patch_14">
    <path d="M 109.459629 179.998 
L 128.24634 165.768501 
L 110.797471 211.723449 
L 109.459629 179.998 
z
" clip-path="url(#pcee4dd6e1d)" style="fill: #ffa500; opacity: 0.1; stroke: #ffa500; stroke-linejoin: miter"/>
   </g>
   <g id="patch_15">
    <path d="M 128.24634 165.768501 
L 148.011202 150.773318 
L 168.939755 134.868977 
L 206.492321 106.383682 
L 230.716727 124.911142 
L 220.179604 147.949699 
L 224.073508 163.087169 
L 229.683682 171.774069 
L 235.135567 180.230834 
L 208.857478 199.642305 
L 199.878342 206.273805 
L 186.750151 216.292166 
L 164.012433 217.587835 
L 149.616354 227.899059 
L 125.85646 245.359189 
L 111.374572 226.110681 
L 110.797471 211.723449 
L 128.24634 165.768501 
z
" clip-path="url(#pcee4dd6e1d)" style="fill: #ffa500; opacity: 0.1; stroke: #ffa500; stroke-linejoin: miter"/>
   </g>
   <g id="patch_16">
    <path d="M 230.716727 124.911142 
L 237.753475 130.319219 
L 248.476366 153.795592 
L 255.981645 170.478757 
L 246.13736 171.865461 
L 235.135567 180.230834 
L 229.683682 171.774069 
L 224.073508 163.087169 
L 220.179604 147.949699 
L 230.716727 124.911142 
z
" clip-path="url(#pcee4dd6e1d)" style="fill: #ffa500; opacity: 0.1; stroke: #ffa500; stroke-linejoin: miter"/>
   </g>
   <g id="patch_17">
    <path d="M 235.135567 180.230834 
L 246.13736 171.865461 
L 255.981645 170.478757 
L 274.030714 210.370854 
L 235.135567 180.230834 
z
" clip-path="url(#pcee4dd6e1d)" style="fill: #ffa500; opacity: 0.1; stroke: #ffa500; stroke-linejoin: miter"/>
   </g>
   <g id="patch_18">
    <path d="M 235.135567 180.230834 
L 274.030714 210.370854 
L 267.637769 211.658378 
L 241.937715 213.125787 
L 225.568271 214.067561 
L 216.826818 214.549269 
L 186.750151 216.292166 
L 199.878342 206.273805 
L 208.857478 199.642305 
L 235.135567 180.230834 
z
" clip-path="url(#pcee4dd6e1d)" style="fill: #ffa500; opacity: 0.1; stroke: #ffa500; stroke-linejoin: miter"/>
   </g>
   <g id="patch_19">
    <path d="M 186.750151 216.292166 
L 216.826818 214.549269 
L 200.029002 227.139775 
L 186.750151 216.292166 
z
" clip-path="url(#pcee4dd6e1d)" style="fill: #ffa500; opacity: 0.1; stroke: #ffa500; stroke-linejoin: miter"/>
   </g>
   <g id="line2d_1">
    <path d="M 101.236034 136.028768 
L 124.233949 136.244151 
L 124.233949 136.244151 
L 138.288325 133.964229 
L 138.288325 133.964229 
L 156.958828 120.162214 
L 156.958828 120.162214 
L 186.05158 91.548507 
L 186.05158 91.548507 
L 206.492321 106.383682 
L 206.492321 106.383682 
L 168.939755 134.868977 
L 168.939755 134.868977 
L 162.039664 140.101662 
L 162.039664 140.101662 
L 151.699272 147.984213 
L 151.699272 147.984213 
L 148.011202 150.773318 
L 148.011202 150.773318 
L 128.24634 165.768501 
L 128.24634 165.768501 
L 109.459629 179.998 
L 109.459629 179.998 
L 110.797471 211.723449 
L 110.797471 211.723449 
L 111.374572 226.110681 
L 111.374572 226.110681 
L 93.266774 250.563209 
L 93.266774 250.563209 
L 92.121043 244.422884 
L 92.121043 244.422884 
L 90.512283 242.903319 
L 90.512283 242.903319 
L 87.076007 239.315546 
L 87.076007 239.315546 
L 83.230303 234.676543 
L 83.230303 234.676543 
L 77.023497 235.215777 
L 77.023497 235.215777 
L 73.832727 227.678583 
L 73.832727 227.678583 
L 82.417857 220.464098 
L 82.417857 220.464098 
L 86.997465 217.265824 
L 86.997465 217.265824 
L 104.608315 205.616477 
L 104.608315 205.616477 
L 99.222271 201.919138 
L 99.222271 201.919138 
L 94.352255 204.530845 
L 94.352255 204.530845 
L 93.66129 192.72611 
L 93.66129 192.72611 
L 95.211993 191.477043 
L 95.211993 191.477043 
L 110.091539 171.975802 
L 110.091539 171.975802 
L 110.163755 165.761673 
L 110.163755 165.761673 
L 110.281345 155.6467 
L 110.281345 155.6467 
L 101.236034 136.028768 
L 101.236034 136.028768 
" clip-path="url(#pcee4dd6e1d)" style="fill: none; stroke: #808080; stroke-width: 0.5; stroke-linecap: square"/>
   </g>
   <g id="line2d_2">
    <path d="M 168.140833 79.842113 
L 176.772988 83.590578 
L 176.772988 83.590578 
L 186.05158 91.548507 
L 186.05158 91.548507 
L 156.958828 120.162214 
L 156.958828 120.162214 
L 138.288325 133.964229 
L 138.288325 133.964229 
L 124.233949 136.244151 
L 124.233949 136.244151 
L 101.236034 136.028768 
L 101.236034 136.028768 
L 98.085666 129.182576 
L 98.085666 129.182576 
L 91.601436 121.743879 
L 91.601436 121.743879 
L 90.821285 117.286761 
L 90.821285 117.286761 
L 129.386336 96.826461 
L 129.386336 96.826461 
L 126.309633 90.219816 
L 126.309633 90.219816 
L 138.428759 91.414786 
L 138.428759 91.414786 
L 168.140833 79.842113 
L 168.140833 79.842113 
" clip-path="url(#pcee4dd6e1d)" style="fill: none; stroke: #808080; stroke-width: 0.5; stroke-linecap: square"/>
   </g>
   <g id="line2d_3">
    <path d="M 91.601436 121.743879 
L 98.085666 129.182576 
L 98.085666 129.182576 
L 101.236034 136.028768 
L 101.236034 136.028768 
L 110.281345 155.6467 
L 110.281345 155.6467 
L 110.163755 165.761673 
L 110.163755 165.761673 
L 110.091539 171.975802 
L 110.091539 171.975802 
L 95.211993 191.477043 
L 95.211993 191.477043 
L 81.987236 190.877713 
L 81.987236 190.877713 
L 90.729285 177.169754 
L 90.729285 177.169754 
L 91.601436 121.743879 
L 91.601436 121.743879 
" clip-path="url(#pcee4dd6e1d)" style="fill: none; stroke: #808080; stroke-width: 0.5; stroke-linecap: square"/>
   </g>
   <g id="line2d_4">
    <path d="M 81.987236 190.877713 
L 95.211993 191.477043 
L 95.211993 191.477043 
L 93.66129 192.72611 
L 93.66129 192.72611 
L 94.352255 204.530845 
L 94.352255 204.530845 
L 99.222271 201.919138 
L 99.222271 201.919138 
L 104.608315 205.616477 
L 104.608315 205.616477 
L 86.997465 217.265824 
L 86.997465 217.265824 
L 84.013119 201.569861 
L 84.013119 201.569861 
L 81.987236 190.877713 
L 81.987236 190.877713 
" clip-path="url(#pcee4dd6e1d)" style="fill: none; stroke: #808080; stroke-width: 0.5; stroke-linecap: square"/>
   </g>
   <g id="line2d_5">
    <path d="M 111.374572 226.110681 
L 125.85646 245.359189 
L 125.85646 245.359189 
L 93.614277 269.213887 
L 93.614277 269.213887 
L 93.899005 256.696386 
L 93.899005 256.696386 
L 93.988302 254.338509 
L 93.988302 254.338509 
L 93.266774 250.563209 
L 93.266774 250.563209 
L 111.374572 226.110681 
L 111.374572 226.110681 
" clip-path="url(#pcee4dd6e1d)" style="fill: none; stroke: #808080; stroke-width: 0.5; stroke-linecap: square"/>
   </g>
   <g id="line2d_6">
    <path d="M 109.459629 179.998 
L 110.797471 211.723449 
L 110.797471 211.723449 
L 128.24634 165.768501 
L 128.24634 165.768501 
L 109.459629 179.998 
L 109.459629 179.998 
" clip-path="url(#pcee4dd6e1d)" style="fill: none; stroke: #808080; stroke-width: 0.5; stroke-linecap: square"/>
   </g>
   <g id="line2d_7">
    <path d="M 128.24634 165.768501 
L 148.011202 150.773318 
L 148.011202 150.773318 
L 151.699272 147.984213 
L 151.699272 147.984213 
L 162.039664 140.101662 
L 162.039664 140.101662 
L 168.939755 134.868977 
L 168.939755 134.868977 
L 206.492321 106.383682 
L 206.492321 106.383682 
L 209.893333 109.009483 
L 209.893333 109.009483 
L 230.716727 124.911142 
L 230.716727 124.911142 
L 237.753475 130.319219 
L 237.753475 130.319219 
L 248.476366 153.795592 
L 248.476366 153.795592 
L 255.981645 170.478757 
L 255.981645 170.478757 
L 246.13736 171.865461 
L 246.13736 171.865461 
L 235.135567 180.230834 
L 235.135567 180.230834 
L 208.857478 199.642305 
L 208.857478 199.642305 
L 204.369935 203.004756 
L 204.369935 203.004756 
L 199.878342 206.273805 
L 199.878342 206.273805 
L 186.750151 216.292166 
L 186.750151 216.292166 
L 175.767039 201.753701 
L 175.767039 201.753701 
L 164.064505 186.243352 
L 164.064505 186.243352 
L 134.884251 208.331565 
L 134.884251 208.331565 
L 111.374572 226.110681 
L 111.374572 226.110681 
L 110.797471 211.723449 
L 110.797471 211.723449 
L 128.24634 165.768501 
L 128.24634 165.768501 
" clip-path="url(#pcee4dd6e1d)" style="fill: none; stroke: #808080; stroke-width: 0.5; stroke-linecap: square"/>
   </g>
   <g id="line2d_8">
    <path d="M 377.346875 86.127943 
L 377.707695 100.867398 
L 377.707695 100.867398 
L 378.206914 121.275746 
L 378.206914 121.275746 
L 380.88328 147.575126 
L 380.88328 147.575126 
L 382.341257 161.924185 
L 382.341257 161.924185 
L 383.508717 173.557595 
L 383.508717 173.557595 
L 383.72961 175.594154 
L 383.72961 175.594154 
L 375.582512 189.45172 
L 375.582512 189.45172 
L 371.402538 196.583495 
L 371.402538 196.583495 
L 367.431584 203.254207 
L 367.431584 203.254207 
L 360.3814 215.344329 
L 360.3814 215.344329 
L 353.005216 227.978462 
L 353.005216 227.978462 
L 344.506556 237.133022 
L 344.506556 237.133022 
L 339.604809 242.399429 
L 339.604809 242.399429 
L 323.157045 243.780255 
L 323.157045 243.780255 
L 305.996059 251.577747 
L 305.996059 251.577747 
L 299.077565 245.867086 
L 299.077565 245.867086 
L 293.833442 238.40515 
L 293.833442 238.40515 
L 344.505686 207.913155 
L 344.505686 207.913155 
L 316.984929 185.082923 
L 316.984929 185.082923 
L 274.030714 210.370854 
L 274.030714 210.370854 
L 255.981645 170.478757 
L 255.981645 170.478757 
L 248.476366 153.795592 
L 248.476366 153.795592 
L 323.157368 114.25068 
L 323.157368 114.25068 
L 377.346875 86.127943 
L 377.346875 86.127943 
" clip-path="url(#pcee4dd6e1d)" style="fill: none; stroke: #808080; stroke-width: 0.5; stroke-linecap: square"/>
   </g>
   <g id="line2d_9">
    <path d="M 316.984929 185.082923 
L 344.505686 207.913155 
L 344.505686 207.913155 
L 293.833442 238.40515 
L 293.833442 238.40515 
L 274.030714 210.370854 
L 274.030714 210.370854 
L 316.984929 185.082923 
L 316.984929 185.082923 
" clip-path="url(#pcee4dd6e1d)" style="fill: none; stroke: #808080; stroke-width: 0.5; stroke-linecap: square"/>
   </g>
   <g id="line2d_10">
    <path d="M 269.612433 102.403827 
L 323.157368 114.25068 
L 323.157368 114.25068 
L 248.476366 153.795592 
L 248.476366 153.795592 
L 237.753475 130.319219 
L 237.753475 130.319219 
L 230.716727 124.911142 
L 230.716727 124.911142 
L 269.612433 102.403827 
L 269.612433 102.403827 
" clip-path="url(#pcee4dd6e1d)" style="fill: none; stroke: #808080; stroke-width: 0.5; stroke-linecap: square"/>
   </g>
   <g id="line2d_11">
    <path d="M 230.716727 124.911142 
L 237.753475 130.319219 
L 237.753475 130.319219 
L 248.476366 153.795592 
L 248.476366 153.795592 
L 255.981645 170.478757 
L 255.981645 170.478757 
L 274.030714 210.370854 
L 274.030714 210.370854 
L 235.135567 180.230834 
L 235.135567 180.230834 
L 229.683682 171.774069 
L 229.683682 171.774069 
L 224.073508 163.087169 
L 224.073508 163.087169 
L 220.179604 147.949699 
L 220.179604 147.949699 
L 223.176926 141.40775 
L 223.176926 141.40775 
L 230.716727 124.911142 
L 230.716727 124.911142 
" clip-path="url(#pcee4dd6e1d)" style="fill: none; stroke: #808080; stroke-width: 0.5; stroke-linecap: square"/>
   </g>
   <g id="line2d_12">
    <path d="M 377.707695 100.867398 
L 391.153009 99.800003 
L 391.153009 99.800003 
L 397.930601 99.255589 
L 397.930601 99.255589 
L 398.487273 120.752109 
L 398.487273 120.752109 
L 382.341257 161.924185 
L 382.341257 161.924185 
L 380.88328 147.575126 
L 380.88328 147.575126 
L 378.206914 121.275746 
L 378.206914 121.275746 
L 377.707695 100.867398 
L 377.707695 100.867398 
" clip-path="url(#pcee4dd6e1d)" style="fill: none; stroke: #808080; stroke-width: 0.5; stroke-linecap: square"/>
   </g>
   <g id="line2d_13">
    <path d="M 109.459629 179.998 
L 128.24634 165.768501 
L 110.797471 211.723449 
L 109.459629 179.998 
L 109.459629 179.998 
" clip-path="url(#pcee4dd6e1d)" style="fill: none; stroke: #ffa500; stroke-width: 0.5; stroke-linecap: square"/>
   </g>
   <g id="line2d_14">
    <path d="M 128.24634 165.768501 
L 148.011202 150.773318 
L 168.939755 134.868977 
L 206.492321 106.383682 
L 230.716727 124.911142 
L 220.179604 147.949699 
L 224.073508 163.087169 
L 229.683682 171.774069 
L 235.135567 180.230834 
L 208.857478 199.642305 
L 199.878342 206.273805 
L 186.750151 216.292166 
L 164.012433 217.587835 
L 149.616354 227.899059 
L 125.85646 245.359189 
L 111.374572 226.110681 
L 110.797471 211.723449 
L 128.24634 165.768501 
L 128.24634 165.768501 
" clip-path="url(#pcee4dd6e1d)" style="fill: none; stroke: #ffa500; stroke-width: 0.5; stroke-linecap: square"/>
   </g>
   <g id="line2d_15">
    <path d="M 230.716727 124.911142 
L 237.753475 130.319219 
L 248.476366 153.795592 
L 255.981645 170.478757 
L 246.13736 171.865461 
L 235.135567 180.230834 
L 229.683682 171.774069 
L 224.073508 163.087169 
L 220.179604 147.949699 
L 230.716727 124.911142 
L 230.716727 124.911142 
" clip-path="url(#pcee4dd6e1d)" style="fill: none; stroke: #ffa500; stroke-width: 0.5; stroke-linecap: square"/>
   </g>
   <g id="line2d_16">
    <path d="M 235.135567 180.230834 
L 246.13736 171.865461 
L 255.981645 170.478757 
L 274.030714 210.370854 
L 235.135567 180.230834 
L 235.135567 180.230834 
" clip-path="url(#pcee4dd6e1d)" style="fill: none; stroke: #ffa500; stroke-width: 0.5; stroke-linecap: square"/>
   </g>
   <g id="line2d_17">
    <path d="M 235.135567 180.230834 
L 274.030714 210.370854 
L 267.637769 211.658378 
L 241.937715 213.125787 
L 225.568271 214.067561 
L 216.826818 214.549269 
L 186.750151 216.292166 
L 199.878342 206.273805 
L 208.857478 199.642305 
L 235.135567 180.230834 
L 235.135567 180.230834 
" clip-path="url(#pcee4dd6e1d)" style="fill: none; stroke: #ffa500; stroke-width: 0.5; stroke-linecap: square"/>
   </g>
   <g id="line2d_18">
    <path d="M 186.750151 216.292166 
L 216.826818 214.549269 
L 200.029002 227.139775 
L 186.750151 216.292166 
L 186.750151 216.292166 
" clip-path="url(#pcee4dd6e1d)" style="fill: none; stroke: #ffa500; stroke-width: 0.5; stroke-linecap: square"/>
   </g>
   <g id="text_1">
    <!-- Düsseldorf -->
    <g transform="translate(204.068437 64.373524) scale(0.12 -0.12)">
     <defs>
      <path id="DejaVuSans-44" d="M 1259 4147 
L 1259 519 
L 2022 519 
Q 2988 519 3436 956 
Q 3884 1394 3884 2338 
Q 3884 3275 3436 3711 
Q 2988 4147 2022 4147 
L 1259 4147 
z
M 628 4666 
L 1925 4666 
Q 3281 4666 3915 4102 
Q 4550 3538 4550 2338 
Q 4550 1131 3912 565 
Q 3275 0 1925 0 
L 628 0 
L 628 4666 
z
" transform="scale(0.015625)"/>
      <path id="DejaVuSans-fc" d="M 544 1381 
L 544 3500 
L 1119 3500 
L 1119 1403 
Q 1119 906 1312 657 
Q 1506 409 1894 409 
Q 2359 409 2629 706 
Q 2900 1003 2900 1516 
L 2900 3500 
L 3475 3500 
L 3475 0 
L 2900 0 
L 2900 538 
Q 2691 219 2414 64 
Q 2138 -91 1772 -91 
Q 1169 -91 856 284 
Q 544 659 544 1381 
z
M 1991 3584 
L 1991 3584 
z
M 2278 4850 
L 2912 4850 
L 2912 4219 
L 2278 4219 
L 2278 4850 
z
M 1056 4850 
L 1690 4850 
L 1690 4219 
L 1056 4219 
L 1056 4850 
z
" transform="scale(0.015625)"/>
      <path id="DejaVuSans-73" d="M 2834 3397 
L 2834 2853 
Q 2591 2978 2328 3040 
Q 2066 3103 1784 3103 
Q 1356 3103 1142 2972 
Q 928 2841 928 2578 
Q 928 2378 1081 2264 
Q 1234 2150 1697 2047 
L 1894 2003 
Q 2506 1872 2764 1633 
Q 3022 1394 3022 966 
Q 3022 478 2636 193 
Q 2250 -91 1575 -91 
Q 1294 -91 989 -36 
Q 684 19 347 128 
L 347 722 
Q 666 556 975 473 
Q 1284 391 1588 391 
Q 1994 391 2212 530 
Q 2431 669 2431 922 
Q 2431 1156 2273 1281 
Q 2116 1406 1581 1522 
L 1381 1569 
Q 847 1681 609 1914 
Q 372 2147 372 2553 
Q 372 3047 722 3315 
Q 1072 3584 1716 3584 
Q 2034 3584 2315 3537 
Q 2597 3491 2834 3397 
z
" transform="scale(0.015625)"/>
      <path id="DejaVuSans-65" d="M 3597 1894 
L 3597 1613 
L 953 1613 
Q 991 1019 1311 708 
Q 1631 397 2203 397 
Q 2534 397 2845 478 
Q 3156 559 3463 722 
L 3463 178 
Q 3153 47 2828 -22 
Q 2503 -91 2169 -91 
Q 1331 -91 842 396 
Q 353 884 353 1716 
Q 353 2575 817 3079 
Q 1281 3584 2069 3584 
Q 2775 3584 3186 3129 
Q 3597 2675 3597 1894 
z
M 3022 2063 
Q 3016 2534 2758 2815 
Q 2500 3097 2075 3097 
Q 1594 3097 1305 2825 
Q 1016 2553 972 2059 
L 3022 2063 
z
" transform="scale(0.015625)"/>
      <path id="DejaVuSans-6c" d="M 603 4863 
L 1178 4863 
L 1178 0 
L 603 0 
L 603 4863 
z
" transform="scale(0.015625)"/>
      <path id="DejaVuSans-64" d="M 2906 2969 
L 2906 4863 
L 3481 4863 
L 3481 0 
L 2906 0 
L 2906 525 
Q 2725 213 2448 61 
Q 2172 -91 1784 -91 
Q 1150 -91 751 415 
Q 353 922 353 1747 
Q 353 2572 751 3078 
Q 1150 3584 1784 3584 
Q 2172 3584 2448 3432 
Q 2725 3281 2906 2969 
z
M 947 1747 
Q 947 1113 1208 752 
Q 1469 391 1925 391 
Q 2381 391 2643 752 
Q 2906 1113 2906 1747 
Q 2906 2381 2643 2742 
Q 2381 3103 1925 3103 
Q 1469 3103 1208 2742 
Q 947 2381 947 1747 
z
" transform="scale(0.015625)"/>
      <path id="DejaVuSans-6f" d="M 1959 3097 
Q 1497 3097 1228 2736 
Q 959 2375 959 1747 
Q 959 1119 1226 758 
Q 1494 397 1959 397 
Q 2419 397 2687 759 
Q 2956 1122 2956 1747 
Q 2956 2369 2687 2733 
Q 2419 3097 1959 3097 
z
M 1959 3584 
Q 2709 3584 3137 3096 
Q 3566 2609 3566 1747 
Q 3566 888 3137 398 
Q 2709 -91 1959 -91 
Q 1206 -91 779 398 
Q 353 888 353 1747 
Q 353 2609 779 3096 
Q 1206 3584 1959 3584 
z
" transform="scale(0.015625)"/>
      <path id="DejaVuSans-72" d="M 2631 2963 
Q 2534 3019 2420 3045 
Q 2306 3072 2169 3072 
Q 1681 3072 1420 2755 
Q 1159 2438 1159 1844 
L 1159 0 
L 581 0 
L 581 3500 
L 1159 3500 
L 1159 2956 
Q 1341 3275 1631 3429 
Q 1922 3584 2338 3584 
Q 2397 3584 2469 3576 
Q 2541 3569 2628 3553 
L 2631 2963 
z
" transform="scale(0.015625)"/>
      <path id="DejaVuSans-66" d="M 2375 4863 
L 2375 4384 
L 1825 4384 
Q 1516 4384 1395 4259 
Q 1275 4134 1275 3809 
L 1275 3500 
L 2222 3500 
L 2222 3053 
L 1275 3053 
L 1275 0 
L 697 0 
L 697 3053 
L 147 3053 
L 147 3500 
L 697 3500 
L 697 3744 
Q 697 4328 969 4595 
Q 1241 4863 1831 4863 
L 2375 4863 
z
" transform="scale(0.015625)"/>
     </defs>
     <use xlink:href="#DejaVuSans-44"/>
     <use xlink:href="#DejaVuSans-fc" x="77.001953"/>
     <use xlink:href="#DejaVuSans-73" x="140.380859"/>
     <use xlink:href="#DejaVuSans-73" x="192.480469"/>
     <use xlink:href="#DejaVuSans-65" x="244.580078"/>
     <use xlink:href="#DejaVuSans-6c" x="306.103516"/>
     <use xlink:href="#DejaVuSans-64" x="333.886719"/>
     <use xlink:href="#DejaVuSans-6f" x="397.363281"/>
     <use xlink:href="#DejaVuSans-72" x="458.544922"/>
     <use xlink:href="#DejaVuSans-66" x="499.658203"/>
    </g>
   </g>
  </g>
 </g>
 <defs>
  <clipPath id="pcee4dd6e1d">
   <rect x="57.6" y="70.373524" width="357.12" height="208.308951"/>
  </clipPath>
 </defs>
</svg>
