<?xml version="1.0" encoding="utf-8" standalone="no"?>
<!DOCTYPE svg PUBLIC "-//W3C//DTD SVG 1.1//EN"
  "http://www.w3.org/Graphics/SVG/1.1/DTD/svg11.dtd">
<svg xmlns:xlink="http://www.w3.org/1999/xlink" width="460.8pt" height="345.6pt" viewBox="0 0 460.8 345.6" xmlns="http://www.w3.org/2000/svg" version="1.1">
 <metadata>
  <rdf:RDF xmlns:dc="http://purl.org/dc/elements/1.1/" xmlns:cc="http://creativecommons.org/ns#" xmlns:rdf="http://www.w3.org/1999/02/22-rdf-syntax-ns#">
   <cc:Work>
    <dc:type rdf:resource="http://purl.org/dc/dcmitype/StillImage"/>
    <dc:date>2023-12-23T15:31:22.027146</dc:date>
    <dc:format>image/svg+xml</dc:format>
    <dc:creator>
     <cc:Agent>
      <dc:title>Matplotlib v3.7.2, https://matplotlib.org/</dc:title>
     </cc:Agent>
    </dc:creator>
   </cc:Work>
  </rdf:RDF>
 </metadata>
 <defs>
  <style type="text/css">*{stroke-linejoin: round; stroke-linecap: butt}</style>
 </defs>
 <g id="figure_1">
  <g id="patch_1">
   <path d="M 0 345.6 
L 460.8 345.6 
L 460.8 0 
L 0 0 
z
" style="fill: #ffffff"/>
  </g>
  <g id="axes_1">
   <g id="patch_2">
    <path d="M 101.236034 136.028768 
L 124.233949 136.244151 
L 124.233949 136.244151 
L 138.288325 133.964229 
L 138.288325 133.964229 
L 156.958828 120.162214 
L 156.958828 120.162214 
L 186.05158 91.548507 
L 186.05158 91.548507 
L 206.492321 106.383682 
L 206.492321 106.383682 
L 168.939755 134.868977 
L 168.939755 134.868977 
L 162.039664 140.101662 
L 162.039664 140.101662 
L 151.699272 147.984213 
L 151.699272 147.984213 
L 148.011202 150.773318 
L 148.011202 150.773318 
L 128.24634 165.768501 
L 128.24634 165.768501 
L 109.459629 179.998 
L 109.459629 179.998 
L 110.797471 211.723449 
L 110.797471 211.723449 
L 111.374572 226.110681 
L 111.374572 226.110681 
L 93.266774 250.563209 
L 93.266774 250.563209 
L 92.121043 244.422884 
L 92.121043 244.422884 
L 90.512283 242.903319 
L 90.512283 242.903319 
L 87.076007 239.315546 
L 87.076007 239.315546 
L 83.230303 234.676543 
L 83.230303 234.676543 
L 77.023497 235.215777 
L 77.023497 235.215777 
L 73.832727 227.678583 
L 73.832727 227.678583 
L 82.417857 220.464098 
L 82.417857 220.464098 
L 86.997465 217.265824 
L 86.997465 217.265824 
L 104.608315 205.616477 
L 104.608315 205.616477 
L 99.222271 201.919138 
L 99.222271 201.919138 
L 94.352255 204.530845 
L 94.352255 204.530845 
L 93.66129 192.72611 
L 93.66129 192.72611 
L 95.211993 191.477043 
L 95.211993 191.477043 
L 110.091539 171.975802 
L 110.091539 171.975802 
L 110.163755 165.761673 
L 110.163755 165.761673 
L 110.281345 155.6467 
L 110.281345 155.6467 
L 101.236034 136.028768 
z
" clip-path="url(#p1d0138b7df)" style="fill: #808080; opacity: 0.05; stroke: #808080; stroke-linejoin: miter"/>
   </g>
   <g id="patch_3">
    <path d="M 168.140833 79.842113 
L 176.772988 83.590578 
L 176.772988 83.590578 
L 186.05158 91.548507 
L 186.05158 91.548507 
L 156.958828 120.162214 
L 156.958828 120.162214 
L 138.288325 133.964229 
L 138.288325 133.964229 
L 124.233949 136.244151 
L 124.233949 136.244151 
L 101.236034 136.028768 
L 101.236034 136.028768 
L 98.085666 129.182576 
L 98.085666 129.182576 
L 91.601436 121.743879 
L 91.601436 121.743879 
L 90.821285 117.286761 
L 90.821285 117.286761 
L 129.386336 96.826461 
L 129.386336 96.826461 
L 126.309633 90.219816 
L 126.309633 90.219816 
L 138.428759 91.414786 
L 138.428759 91.414786 
L 168.140833 79.842113 
z
" clip-path="url(#p1d0138b7df)" style="fill: #808080; opacity: 0.05; stroke: #808080; stroke-linejoin: miter"/>
   </g>
   <g id="patch_4">
    <path d="M 91.601436 121.743879 
L 98.085666 129.182576 
L 98.085666 129.182576 
L 101.236034 136.028768 
L 101.236034 136.028768 
L 110.281345 155.6467 
L 110.281345 155.6467 
L 110.163755 165.761673 
L 110.163755 165.761673 
L 110.091539 171.975802 
L 110.091539 171.975802 
L 95.211993 191.477043 
L 95.211993 191.477043 
L 81.987236 190.877713 
L 81.987236 190.877713 
L 90.729285 177.169754 
L 90.729285 177.169754 
L 91.601436 121.743879 
z
" clip-path="url(#p1d0138b7df)" style="fill: #808080; opacity: 0.05; stroke: #808080; stroke-linejoin: miter"/>
   </g>
   <g id="patch_5">
    <path d="M 81.987236 190.877713 
L 95.211993 191.477043 
L 95.211993 191.477043 
L 93.66129 192.72611 
L 93.66129 192.72611 
L 94.352255 204.530845 
L 94.352255 204.530845 
L 99.222271 201.919138 
L 99.222271 201.919138 
L 104.608315 205.616477 
L 104.608315 205.616477 
L 86.997465 217.265824 
L 86.997465 217.265824 
L 84.013119 201.569861 
L 84.013119 201.569861 
L 81.987236 190.877713 
z
" clip-path="url(#p1d0138b7df)" style="fill: #808080; opacity: 0.05; stroke: #808080; stroke-linejoin: miter"/>
   </g>
   <g id="patch_6">
    <path d="M 111.374572 226.110681 
L 125.85646 245.359189 
L 125.85646 245.359189 
L 93.614277 269.213887 
L 93.614277 269.213887 
L 93.899005 256.696386 
L 93.899005 256.696386 
L 93.988302 254.338509 
L 93.988302 254.338509 
L 93.266774 250.563209 
L 93.266774 250.563209 
L 111.374572 226.110681 
z
" clip-path="url(#p1d0138b7df)" style="fill: #808080; opacity: 0.05; stroke: #808080; stroke-linejoin: miter"/>
   </g>
   <g id="patch_7">
    <path d="M 109.459629 179.998 
L 110.797471 211.723449 
L 110.797471 211.723449 
L 128.24634 165.768501 
L 128.24634 165.768501 
L 109.459629 179.998 
z
" clip-path="url(#p1d0138b7df)" style="fill: #808080; opacity: 0.05; stroke: #808080; stroke-linejoin: miter"/>
   </g>
   <g id="patch_8">
    <path d="M 128.24634 165.768501 
L 148.011202 150.773318 
L 148.011202 150.773318 
L 151.699272 147.984213 
L 151.699272 147.984213 
L 162.039664 140.101662 
L 162.039664 140.101662 
L 168.939755 134.868977 
L 168.939755 134.868977 
L 206.492321 106.383682 
L 206.492321 106.383682 
L 209.893333 109.009483 
L 209.893333 109.009483 
L 230.716727 124.911142 
L 230.716727 124.911142 
L 237.753475 130.319219 
L 237.753475 130.319219 
L 248.476366 153.795592 
L 248.476366 153.795592 
L 255.981645 170.478757 
L 255.981645 170.478757 
L 246.13736 171.865461 
L 246.13736 171.865461 
L 235.135567 180.230834 
L 235.135567 180.230834 
L 208.857478 199.642305 
L 208.857478 199.642305 
L 204.369935 203.004756 
L 204.369935 203.004756 
L 199.878342 206.273805 
L 199.878342 206.273805 
L 186.750151 216.292166 
L 186.750151 216.292166 
L 175.767039 201.753701 
L 175.767039 201.753701 
L 164.064505 186.243352 
L 164.064505 186.243352 
L 134.884251 208.331565 
L 134.884251 208.331565 
L 111.374572 226.110681 
L 111.374572 226.110681 
L 110.797471 211.723449 
L 110.797471 211.723449 
L 128.24634 165.768501 
z
" clip-path="url(#p1d0138b7df)" style="fill: #808080; opacity: 0.05; stroke: #808080; stroke-linejoin: miter"/>
   </g>
   <g id="patch_9">
    <path d="M 377.346875 86.127943 
L 377.707695 100.867398 
L 377.707695 100.867398 
L 378.206914 121.275746 
L 378.206914 121.275746 
L 380.88328 147.575126 
L 380.88328 147.575126 
L 382.341257 161.924185 
L 382.341257 161.924185 
L 383.508717 173.557595 
L 383.508717 173.557595 
L 383.72961 175.594154 
L 383.72961 175.594154 
L 375.582512 189.45172 
L 375.582512 189.45172 
L 371.402538 196.583495 
L 371.402538 196.583495 
L 367.431584 203.254207 
L 367.431584 203.254207 
L 360.3814 215.344329 
L 360.3814 215.344329 
L 353.005216 227.978462 
L 353.005216 227.978462 
L 344.506556 237.133022 
L 344.506556 237.133022 
L 339.604809 242.399429 
L 339.604809 242.399429 
L 323.157045 243.780255 
L 323.157045 243.780255 
L 305.996059 251.577747 
L 305.996059 251.577747 
L 299.077565 245.867086 
L 299.077565 245.867086 
L 293.833442 238.40515 
L 293.833442 238.40515 
L 344.505686 207.913155 
L 344.505686 207.913155 
L 316.984929 185.082923 
L 316.984929 185.082923 
L 274.030714 210.370854 
L 274.030714 210.370854 
L 255.981645 170.478757 
L 255.981645 170.478757 
L 248.476366 153.795592 
L 248.476366 153.795592 
L 323.157368 114.25068 
L 323.157368 114.25068 
L 377.346875 86.127943 
z
" clip-path="url(#p1d0138b7df)" style="fill: #808080; opacity: 0.05; stroke: #808080; stroke-linejoin: miter"/>
   </g>
   <g id="patch_10">
    <path d="M 316.984929 185.082923 
L 344.505686 207.913155 
L 344.505686 207.913155 
L 293.833442 238.40515 
L 293.833442 238.40515 
L 274.030714 210.370854 
L 274.030714 210.370854 
L 316.984929 185.082923 
z
" clip-path="url(#p1d0138b7df)" style="fill: #808080; opacity: 0.05; stroke: #808080; stroke-linejoin: miter"/>
   </g>
   <g id="patch_11">
    <path d="M 269.612433 102.403827 
L 323.157368 114.25068 
L 323.157368 114.25068 
L 248.476366 153.795592 
L 248.476366 153.795592 
L 237.753475 130.319219 
L 237.753475 130.319219 
L 230.716727 124.911142 
L 230.716727 124.911142 
L 269.612433 102.403827 
z
" clip-path="url(#p1d0138b7df)" style="fill: #808080; opacity: 0.05; stroke: #808080; stroke-linejoin: miter"/>
   </g>
   <g id="patch_12">
    <path d="M 230.716727 124.911142 
L 237.753475 130.319219 
L 237.753475 130.319219 
L 248.476366 153.795592 
L 248.476366 153.795592 
L 255.981645 170.478757 
L 255.981645 170.478757 
L 274.030714 210.370854 
L 274.030714 210.370854 
L 235.135567 180.230834 
L 235.135567 180.230834 
L 229.683682 171.774069 
L 229.683682 171.774069 
L 224.073508 163.087169 
L 224.073508 163.087169 
L 220.179604 147.949699 
L 220.179604 147.949699 
L 223.176926 141.40775 
L 223.176926 141.40775 
L 230.716727 124.911142 
z
" clip-path="url(#p1d0138b7df)" style="fill: #808080; opacity: 0.05; stroke: #808080; stroke-linejoin: miter"/>
   </g>
   <g id="patch_13">
    <path d="M 377.707695 100.867398 
L 391.153009 99.800003 
L 391.153009 99.800003 
L 397.930601 99.255589 
L 397.930601 99.255589 
L 398.487273 120.752109 
L 398.487273 120.752109 
L 382.341257 161.924185 
L 382.341257 161.924185 
L 380.88328 147.575126 
L 380.88328 147.575126 
L 378.206914 121.275746 
L 378.206914 121.275746 
L 377.707695 100.867398 
z
" clip-path="url(#p1d0138b7df)" style="fill: #808080; opacity: 0.05; stroke: #808080; stroke-linejoin: miter"/>
   </g>
   <g id="patch_14">
    <path d="M 109.459629 179.998 
L 128.24634 165.768501 
L 110.797471 211.723449 
L 109.459629 179.998 
z
" clip-path="url(#p1d0138b7df)" style="fill: #ffa500; opacity: 0.05; stroke: #ffa500; stroke-linejoin: miter"/>
   </g>
   <g id="patch_15">
    <path d="M 128.24634 165.768501 
L 148.011202 150.773318 
L 168.939755 134.868977 
L 206.492321 106.383682 
L 230.716727 124.911142 
L 220.179604 147.949699 
L 224.073508 163.087169 
L 229.683682 171.774069 
L 235.135567 180.230834 
L 208.857478 199.642305 
L 199.878342 206.273805 
L 186.750151 216.292166 
L 164.012433 217.587835 
L 149.616354 227.899059 
L 125.85646 245.359189 
L 111.374572 226.110681 
L 110.797471 211.723449 
L 128.24634 165.768501 
z
" clip-path="url(#p1d0138b7df)" style="fill: #ffa500; opacity: 0.05; stroke: #ffa500; stroke-linejoin: miter"/>
   </g>
   <g id="patch_16">
    <path d="M 230.716727 124.911142 
L 237.753475 130.319219 
L 248.476366 153.795592 
L 255.981645 170.478757 
L 246.13736 171.865461 
L 235.135567 180.230834 
L 229.683682 171.774069 
L 224.073508 163.087169 
L 220.179604 147.949699 
L 230.716727 124.911142 
z
" clip-path="url(#p1d0138b7df)" style="fill: #ffa500; opacity: 0.05; stroke: #ffa500; stroke-linejoin: miter"/>
   </g>
   <g id="patch_17">
    <path d="M 235.135567 180.230834 
L 246.13736 171.865461 
L 255.981645 170.478757 
L 274.030714 210.370854 
L 235.135567 180.230834 
z
" clip-path="url(#p1d0138b7df)" style="fill: #ffa500; opacity: 0.05; stroke: #ffa500; stroke-linejoin: miter"/>
   </g>
   <g id="patch_18">
    <path d="M 235.135567 180.230834 
L 274.030714 210.370854 
L 267.637769 211.658378 
L 241.937715 213.125787 
L 225.568271 214.067561 
L 216.826818 214.549269 
L 186.750151 216.292166 
L 199.878342 206.273805 
L 208.857478 199.642305 
L 235.135567 180.230834 
z
" clip-path="url(#p1d0138b7df)" style="fill: #ffa500; opacity: 0.05; stroke: #ffa500; stroke-linejoin: miter"/>
   </g>
   <g id="patch_19">
    <path d="M 186.750151 216.292166 
L 216.826818 214.549269 
L 200.029002 227.139775 
L 186.750151 216.292166 
z
" clip-path="url(#p1d0138b7df)" style="fill: #ffa500; opacity: 0.05; stroke: #ffa500; stroke-linejoin: miter"/>
   </g>
   <g id="line2d_1">
    <path d="M 101.236034 136.028768 
L 124.233949 136.244151 
L 124.233949 136.244151 
L 138.288325 133.964229 
L 138.288325 133.964229 
L 156.958828 120.162214 
L 156.958828 120.162214 
L 186.05158 91.548507 
L 186.05158 91.548507 
L 206.492321 106.383682 
L 206.492321 106.383682 
L 168.939755 134.868977 
L 168.939755 134.868977 
L 162.039664 140.101662 
L 162.039664 140.101662 
L 151.699272 147.984213 
L 151.699272 147.984213 
L 148.011202 150.773318 
L 148.011202 150.773318 
L 128.24634 165.768501 
L 128.24634 165.768501 
L 109.459629 179.998 
L 109.459629 179.998 
L 110.797471 211.723449 
L 110.797471 211.723449 
L 111.374572 226.110681 
L 111.374572 226.110681 
L 93.266774 250.563209 
L 93.266774 250.563209 
L 92.121043 244.422884 
L 92.121043 244.422884 
L 90.512283 242.903319 
L 90.512283 242.903319 
L 87.076007 239.315546 
L 87.076007 239.315546 
L 83.230303 234.676543 
L 83.230303 234.676543 
L 77.023497 235.215777 
L 77.023497 235.215777 
L 73.832727 227.678583 
L 73.832727 227.678583 
L 82.417857 220.464098 
L 82.417857 220.464098 
L 86.997465 217.265824 
L 86.997465 217.265824 
L 104.608315 205.616477 
L 104.608315 205.616477 
L 99.222271 201.919138 
L 99.222271 201.919138 
L 94.352255 204.530845 
L 94.352255 204.530845 
L 93.66129 192.72611 
L 93.66129 192.72611 
L 95.211993 191.477043 
L 95.211993 191.477043 
L 110.091539 171.975802 
L 110.091539 171.975802 
L 110.163755 165.761673 
L 110.163755 165.761673 
L 110.281345 155.6467 
L 110.281345 155.6467 
L 101.236034 136.028768 
L 101.236034 136.028768 
" clip-path="url(#p1d0138b7df)" style="fill: none; stroke: #808080; stroke-width: 0.5; stroke-linecap: square"/>
   </g>
   <g id="line2d_2">
    <path d="M 168.140833 79.842113 
L 176.772988 83.590578 
L 176.772988 83.590578 
L 186.05158 91.548507 
L 186.05158 91.548507 
L 156.958828 120.162214 
L 156.958828 120.162214 
L 138.288325 133.964229 
L 138.288325 133.964229 
L 124.233949 136.244151 
L 124.233949 136.244151 
L 101.236034 136.028768 
L 101.236034 136.028768 
L 98.085666 129.182576 
L 98.085666 129.182576 
L 91.601436 121.743879 
L 91.601436 121.743879 
L 90.821285 117.286761 
L 90.821285 117.286761 
L 129.386336 96.826461 
L 129.386336 96.826461 
L 126.309633 90.219816 
L 126.309633 90.219816 
L 138.428759 91.414786 
L 138.428759 91.414786 
L 168.140833 79.842113 
L 168.140833 79.842113 
" clip-path="url(#p1d0138b7df)" style="fill: none; stroke: #808080; stroke-width: 0.5; stroke-linecap: square"/>
   </g>
   <g id="line2d_3">
    <path d="M 91.601436 121.743879 
L 98.085666 129.182576 
L 98.085666 129.182576 
L 101.236034 136.028768 
L 101.236034 136.028768 
L 110.281345 155.6467 
L 110.281345 155.6467 
L 110.163755 165.761673 
L 110.163755 165.761673 
L 110.091539 171.975802 
L 110.091539 171.975802 
L 95.211993 191.477043 
L 95.211993 191.477043 
L 81.987236 190.877713 
L 81.987236 190.877713 
L 90.729285 177.169754 
L 90.729285 177.169754 
L 91.601436 121.743879 
L 91.601436 121.743879 
" clip-path="url(#p1d0138b7df)" style="fill: none; stroke: #808080; stroke-width: 0.5; stroke-linecap: square"/>
   </g>
   <g id="line2d_4">
    <path d="M 81.987236 190.877713 
L 95.211993 191.477043 
L 95.211993 191.477043 
L 93.66129 192.72611 
L 93.66129 192.72611 
L 94.352255 204.530845 
L 94.352255 204.530845 
L 99.222271 201.919138 
L 99.222271 201.919138 
L 104.608315 205.616477 
L 104.608315 205.616477 
L 86.997465 217.265824 
L 86.997465 217.265824 
L 84.013119 201.569861 
L 84.013119 201.569861 
L 81.987236 190.877713 
L 81.987236 190.877713 
" clip-path="url(#p1d0138b7df)" style="fill: none; stroke: #808080; stroke-width: 0.5; stroke-linecap: square"/>
   </g>
   <g id="line2d_5">
    <path d="M 111.374572 226.110681 
L 125.85646 245.359189 
L 125.85646 245.359189 
L 93.614277 269.213887 
L 93.614277 269.213887 
L 93.899005 256.696386 
L 93.899005 256.696386 
L 93.988302 254.338509 
L 93.988302 254.338509 
L 93.266774 250.563209 
L 93.266774 250.563209 
L 111.374572 226.110681 
L 111.374572 226.110681 
" clip-path="url(#p1d0138b7df)" style="fill: none; stroke: #808080; stroke-width: 0.5; stroke-linecap: square"/>
   </g>
   <g id="line2d_6">
    <path d="M 109.459629 179.998 
L 110.797471 211.723449 
L 110.797471 211.723449 
L 128.24634 165.768501 
L 128.24634 165.768501 
L 109.459629 179.998 
L 109.459629 179.998 
" clip-path="url(#p1d0138b7df)" style="fill: none; stroke: #808080; stroke-width: 0.5; stroke-linecap: square"/>
   </g>
   <g id="line2d_7">
    <path d="M 128.24634 165.768501 
L 148.011202 150.773318 
L 148.011202 150.773318 
L 151.699272 147.984213 
L 151.699272 147.984213 
L 162.039664 140.101662 
L 162.039664 140.101662 
L 168.939755 134.868977 
L 168.939755 134.868977 
L 206.492321 106.383682 
L 206.492321 106.383682 
L 209.893333 109.009483 
L 209.893333 109.009483 
L 230.716727 124.911142 
L 230.716727 124.911142 
L 237.753475 130.319219 
L 237.753475 130.319219 
L 248.476366 153.795592 
L 248.476366 153.795592 
L 255.981645 170.478757 
L 255.981645 170.478757 
L 246.13736 171.865461 
L 246.13736 171.865461 
L 235.135567 180.230834 
L 235.135567 180.230834 
L 208.857478 199.642305 
L 208.857478 199.642305 
L 204.369935 203.004756 
L 204.369935 203.004756 
L 199.878342 206.273805 
L 199.878342 206.273805 
L 186.750151 216.292166 
L 186.750151 216.292166 
L 175.767039 201.753701 
L 175.767039 201.753701 
L 164.064505 186.243352 
L 164.064505 186.243352 
L 134.884251 208.331565 
L 134.884251 208.331565 
L 111.374572 226.110681 
L 111.374572 226.110681 
L 110.797471 211.723449 
L 110.797471 211.723449 
L 128.24634 165.768501 
L 128.24634 165.768501 
" clip-path="url(#p1d0138b7df)" style="fill: none; stroke: #808080; stroke-width: 0.5; stroke-linecap: square"/>
   </g>
   <g id="line2d_8">
    <path d="M 377.346875 86.127943 
L 377.707695 100.867398 
L 377.707695 100.867398 
L 378.206914 121.275746 
L 378.206914 121.275746 
L 380.88328 147.575126 
L 380.88328 147.575126 
L 382.341257 161.924185 
L 382.341257 161.924185 
L 383.508717 173.557595 
L 383.508717 173.557595 
L 383.72961 175.594154 
L 383.72961 175.594154 
L 375.582512 189.45172 
L 375.582512 189.45172 
L 371.402538 196.583495 
L 371.402538 196.583495 
L 367.431584 203.254207 
L 367.431584 203.254207 
L 360.3814 215.344329 
L 360.3814 215.344329 
L 353.005216 227.978462 
L 353.005216 227.978462 
L 344.506556 237.133022 
L 344.506556 237.133022 
L 339.604809 242.399429 
L 339.604809 242.399429 
L 323.157045 243.780255 
L 323.157045 243.780255 
L 305.996059 251.577747 
L 305.996059 251.577747 
L 299.077565 245.867086 
L 299.077565 245.867086 
L 293.833442 238.40515 
L 293.833442 238.40515 
L 344.505686 207.913155 
L 344.505686 207.913155 
L 316.984929 185.082923 
L 316.984929 185.082923 
L 274.030714 210.370854 
L 274.030714 210.370854 
L 255.981645 170.478757 
L 255.981645 170.478757 
L 248.476366 153.795592 
L 248.476366 153.795592 
L 323.157368 114.25068 
L 323.157368 114.25068 
L 377.346875 86.127943 
L 377.346875 86.127943 
" clip-path="url(#p1d0138b7df)" style="fill: none; stroke: #808080; stroke-width: 0.5; stroke-linecap: square"/>
   </g>
   <g id="line2d_9">
    <path d="M 316.984929 185.082923 
L 344.505686 207.913155 
L 344.505686 207.913155 
L 293.833442 238.40515 
L 293.833442 238.40515 
L 274.030714 210.370854 
L 274.030714 210.370854 
L 316.984929 185.082923 
L 316.984929 185.082923 
" clip-path="url(#p1d0138b7df)" style="fill: none; stroke: #808080; stroke-width: 0.5; stroke-linecap: square"/>
   </g>
   <g id="line2d_10">
    <path d="M 269.612433 102.403827 
L 323.157368 114.25068 
L 323.157368 114.25068 
L 248.476366 153.795592 
L 248.476366 153.795592 
L 237.753475 130.319219 
L 237.753475 130.319219 
L 230.716727 124.911142 
L 230.716727 124.911142 
L 269.612433 102.403827 
L 269.612433 102.403827 
" clip-path="url(#p1d0138b7df)" style="fill: none; stroke: #808080; stroke-width: 0.5; stroke-linecap: square"/>
   </g>
   <g id="line2d_11">
    <path d="M 230.716727 124.911142 
L 237.753475 130.319219 
L 237.753475 130.319219 
L 248.476366 153.795592 
L 248.476366 153.795592 
L 255.981645 170.478757 
L 255.981645 170.478757 
L 274.030714 210.370854 
L 274.030714 210.370854 
L 235.135567 180.230834 
L 235.135567 180.230834 
L 229.683682 171.774069 
L 229.683682 171.774069 
L 224.073508 163.087169 
L 224.073508 163.087169 
L 220.179604 147.949699 
L 220.179604 147.949699 
L 223.176926 141.40775 
L 223.176926 141.40775 
L 230.716727 124.911142 
L 230.716727 124.911142 
" clip-path="url(#p1d0138b7df)" style="fill: none; stroke: #808080; stroke-width: 0.5; stroke-linecap: square"/>
   </g>
   <g id="line2d_12">
    <path d="M 377.707695 100.867398 
L 391.153009 99.800003 
L 391.153009 99.800003 
L 397.930601 99.255589 
L 397.930601 99.255589 
L 398.487273 120.752109 
L 398.487273 120.752109 
L 382.341257 161.924185 
L 382.341257 161.924185 
L 380.88328 147.575126 
L 380.88328 147.575126 
L 378.206914 121.275746 
L 378.206914 121.275746 
L 377.707695 100.867398 
L 377.707695 100.867398 
" clip-path="url(#p1d0138b7df)" style="fill: none; stroke: #808080; stroke-width: 0.5; stroke-linecap: square"/>
   </g>
   <g id="line2d_13">
    <path d="M 109.459629 179.998 
L 128.24634 165.768501 
L 110.797471 211.723449 
L 109.459629 179.998 
L 109.459629 179.998 
" clip-path="url(#p1d0138b7df)" style="fill: none; stroke: #ffa500; stroke-width: 0.5; stroke-linecap: square"/>
   </g>
   <g id="line2d_14">
    <path d="M 128.24634 165.768501 
L 148.011202 150.773318 
L 168.939755 134.868977 
L 206.492321 106.383682 
L 230.716727 124.911142 
L 220.179604 147.949699 
L 224.073508 163.087169 
L 229.683682 171.774069 
L 235.135567 180.230834 
L 208.857478 199.642305 
L 199.878342 206.273805 
L 186.750151 216.292166 
L 164.012433 217.587835 
L 149.616354 227.899059 
L 125.85646 245.359189 
L 111.374572 226.110681 
L 110.797471 211.723449 
L 128.24634 165.768501 
L 128.24634 165.768501 
" clip-path="url(#p1d0138b7df)" style="fill: none; stroke: #ffa500; stroke-width: 0.5; stroke-linecap: square"/>
   </g>
   <g id="line2d_15">
    <path d="M 230.716727 124.911142 
L 237.753475 130.319219 
L 248.476366 153.795592 
L 255.981645 170.478757 
L 246.13736 171.865461 
L 235.135567 180.230834 
L 229.683682 171.774069 
L 224.073508 163.087169 
L 220.179604 147.949699 
L 230.716727 124.911142 
L 230.716727 124.911142 
" clip-path="url(#p1d0138b7df)" style="fill: none; stroke: #ffa500; stroke-width: 0.5; stroke-linecap: square"/>
   </g>
   <g id="line2d_16">
    <path d="M 235.135567 180.230834 
L 246.13736 171.865461 
L 255.981645 170.478757 
L 274.030714 210.370854 
L 235.135567 180.230834 
L 235.135567 180.230834 
" clip-path="url(#p1d0138b7df)" style="fill: none; stroke: #ffa500; stroke-width: 0.5; stroke-linecap: square"/>
   </g>
   <g id="line2d_17">
    <path d="M 235.135567 180.230834 
L 274.030714 210.370854 
L 267.637769 211.658378 
L 241.937715 213.125787 
L 225.568271 214.067561 
L 216.826818 214.549269 
L 186.750151 216.292166 
L 199.878342 206.273805 
L 208.857478 199.642305 
L 235.135567 180.230834 
L 235.135567 180.230834 
" clip-path="url(#p1d0138b7df)" style="fill: none; stroke: #ffa500; stroke-width: 0.5; stroke-linecap: square"/>
   </g>
   <g id="line2d_18">
    <path d="M 186.750151 216.292166 
L 216.826818 214.549269 
L 200.029002 227.139775 
L 186.750151 216.292166 
L 186.750151 216.292166 
" clip-path="url(#p1d0138b7df)" style="fill: none; stroke: #ffa500; stroke-width: 0.5; stroke-linecap: square"/>
   </g>
   <g id="text_1">
    <!-- Bottrop (Düsseldorf North) -->
    <g style="fill: #ff0000" transform="translate(84.41356 175.588485) scale(0.07 -0.07)">
     <defs>
      <path id="DejaVuSans-42" d="M 1259 2228 
L 1259 519 
L 2272 519 
Q 2781 519 3026 730 
Q 3272 941 3272 1375 
Q 3272 1813 3026 2020 
Q 2781 2228 2272 2228 
L 1259 2228 
z
M 1259 4147 
L 1259 2741 
L 2194 2741 
Q 2656 2741 2882 2914 
Q 3109 3088 3109 3444 
Q 3109 3797 2882 3972 
Q 2656 4147 2194 4147 
L 1259 4147 
z
M 628 4666 
L 2241 4666 
Q 2963 4666 3353 4366 
Q 3744 4066 3744 3513 
Q 3744 3084 3544 2831 
Q 3344 2578 2956 2516 
Q 3422 2416 3680 2098 
Q 3938 1781 3938 1306 
Q 3938 681 3513 340 
Q 3088 0 2303 0 
L 628 0 
L 628 4666 
z
" transform="scale(0.015625)"/>
      <path id="DejaVuSans-6f" d="M 1959 3097 
Q 1497 3097 1228 2736 
Q 959 2375 959 1747 
Q 959 1119 1226 758 
Q 1494 397 1959 397 
Q 2419 397 2687 759 
Q 2956 1122 2956 1747 
Q 2956 2369 2687 2733 
Q 2419 3097 1959 3097 
z
M 1959 3584 
Q 2709 3584 3137 3096 
Q 3566 2609 3566 1747 
Q 3566 888 3137 398 
Q 2709 -91 1959 -91 
Q 1206 -91 779 398 
Q 353 888 353 1747 
Q 353 2609 779 3096 
Q 1206 3584 1959 3584 
z
" transform="scale(0.015625)"/>
      <path id="DejaVuSans-74" d="M 1172 4494 
L 1172 3500 
L 2356 3500 
L 2356 3053 
L 1172 3053 
L 1172 1153 
Q 1172 725 1289 603 
Q 1406 481 1766 481 
L 2356 481 
L 2356 0 
L 1766 0 
Q 1100 0 847 248 
Q 594 497 594 1153 
L 594 3053 
L 172 3053 
L 172 3500 
L 594 3500 
L 594 4494 
L 1172 4494 
z
" transform="scale(0.015625)"/>
      <path id="DejaVuSans-72" d="M 2631 2963 
Q 2534 3019 2420 3045 
Q 2306 3072 2169 3072 
Q 1681 3072 1420 2755 
Q 1159 2438 1159 1844 
L 1159 0 
L 581 0 
L 581 3500 
L 1159 3500 
L 1159 2956 
Q 1341 3275 1631 3429 
Q 1922 3584 2338 3584 
Q 2397 3584 2469 3576 
Q 2541 3569 2628 3553 
L 2631 2963 
z
" transform="scale(0.015625)"/>
      <path id="DejaVuSans-70" d="M 1159 525 
L 1159 -1331 
L 581 -1331 
L 581 3500 
L 1159 3500 
L 1159 2969 
Q 1341 3281 1617 3432 
Q 1894 3584 2278 3584 
Q 2916 3584 3314 3078 
Q 3713 2572 3713 1747 
Q 3713 922 3314 415 
Q 2916 -91 2278 -91 
Q 1894 -91 1617 61 
Q 1341 213 1159 525 
z
M 3116 1747 
Q 3116 2381 2855 2742 
Q 2594 3103 2138 3103 
Q 1681 3103 1420 2742 
Q 1159 2381 1159 1747 
Q 1159 1113 1420 752 
Q 1681 391 2138 391 
Q 2594 391 2855 752 
Q 3116 1113 3116 1747 
z
" transform="scale(0.015625)"/>
      <path id="DejaVuSans-20" transform="scale(0.015625)"/>
      <path id="DejaVuSans-28" d="M 1984 4856 
Q 1566 4138 1362 3434 
Q 1159 2731 1159 2009 
Q 1159 1288 1364 580 
Q 1569 -128 1984 -844 
L 1484 -844 
Q 1016 -109 783 600 
Q 550 1309 550 2009 
Q 550 2706 781 3412 
Q 1013 4119 1484 4856 
L 1984 4856 
z
" transform="scale(0.015625)"/>
      <path id="DejaVuSans-44" d="M 1259 4147 
L 1259 519 
L 2022 519 
Q 2988 519 3436 956 
Q 3884 1394 3884 2338 
Q 3884 3275 3436 3711 
Q 2988 4147 2022 4147 
L 1259 4147 
z
M 628 4666 
L 1925 4666 
Q 3281 4666 3915 4102 
Q 4550 3538 4550 2338 
Q 4550 1131 3912 565 
Q 3275 0 1925 0 
L 628 0 
L 628 4666 
z
" transform="scale(0.015625)"/>
      <path id="DejaVuSans-fc" d="M 544 1381 
L 544 3500 
L 1119 3500 
L 1119 1403 
Q 1119 906 1312 657 
Q 1506 409 1894 409 
Q 2359 409 2629 706 
Q 2900 1003 2900 1516 
L 2900 3500 
L 3475 3500 
L 3475 0 
L 2900 0 
L 2900 538 
Q 2691 219 2414 64 
Q 2138 -91 1772 -91 
Q 1169 -91 856 284 
Q 544 659 544 1381 
z
M 1991 3584 
L 1991 3584 
z
M 2278 4850 
L 2912 4850 
L 2912 4219 
L 2278 4219 
L 2278 4850 
z
M 1056 4850 
L 1690 4850 
L 1690 4219 
L 1056 4219 
L 1056 4850 
z
" transform="scale(0.015625)"/>
      <path id="DejaVuSans-73" d="M 2834 3397 
L 2834 2853 
Q 2591 2978 2328 3040 
Q 2066 3103 1784 3103 
Q 1356 3103 1142 2972 
Q 928 2841 928 2578 
Q 928 2378 1081 2264 
Q 1234 2150 1697 2047 
L 1894 2003 
Q 2506 1872 2764 1633 
Q 3022 1394 3022 966 
Q 3022 478 2636 193 
Q 2250 -91 1575 -91 
Q 1294 -91 989 -36 
Q 684 19 347 128 
L 347 722 
Q 666 556 975 473 
Q 1284 391 1588 391 
Q 1994 391 2212 530 
Q 2431 669 2431 922 
Q 2431 1156 2273 1281 
Q 2116 1406 1581 1522 
L 1381 1569 
Q 847 1681 609 1914 
Q 372 2147 372 2553 
Q 372 3047 722 3315 
Q 1072 3584 1716 3584 
Q 2034 3584 2315 3537 
Q 2597 3491 2834 3397 
z
" transform="scale(0.015625)"/>
      <path id="DejaVuSans-65" d="M 3597 1894 
L 3597 1613 
L 953 1613 
Q 991 1019 1311 708 
Q 1631 397 2203 397 
Q 2534 397 2845 478 
Q 3156 559 3463 722 
L 3463 178 
Q 3153 47 2828 -22 
Q 2503 -91 2169 -91 
Q 1331 -91 842 396 
Q 353 884 353 1716 
Q 353 2575 817 3079 
Q 1281 3584 2069 3584 
Q 2775 3584 3186 3129 
Q 3597 2675 3597 1894 
z
M 3022 2063 
Q 3016 2534 2758 2815 
Q 2500 3097 2075 3097 
Q 1594 3097 1305 2825 
Q 1016 2553 972 2059 
L 3022 2063 
z
" transform="scale(0.015625)"/>
      <path id="DejaVuSans-6c" d="M 603 4863 
L 1178 4863 
L 1178 0 
L 603 0 
L 603 4863 
z
" transform="scale(0.015625)"/>
      <path id="DejaVuSans-64" d="M 2906 2969 
L 2906 4863 
L 3481 4863 
L 3481 0 
L 2906 0 
L 2906 525 
Q 2725 213 2448 61 
Q 2172 -91 1784 -91 
Q 1150 -91 751 415 
Q 353 922 353 1747 
Q 353 2572 751 3078 
Q 1150 3584 1784 3584 
Q 2172 3584 2448 3432 
Q 2725 3281 2906 2969 
z
M 947 1747 
Q 947 1113 1208 752 
Q 1469 391 1925 391 
Q 2381 391 2643 752 
Q 2906 1113 2906 1747 
Q 2906 2381 2643 2742 
Q 2381 3103 1925 3103 
Q 1469 3103 1208 2742 
Q 947 2381 947 1747 
z
" transform="scale(0.015625)"/>
      <path id="DejaVuSans-66" d="M 2375 4863 
L 2375 4384 
L 1825 4384 
Q 1516 4384 1395 4259 
Q 1275 4134 1275 3809 
L 1275 3500 
L 2222 3500 
L 2222 3053 
L 1275 3053 
L 1275 0 
L 697 0 
L 697 3053 
L 147 3053 
L 147 3500 
L 697 3500 
L 697 3744 
Q 697 4328 969 4595 
Q 1241 4863 1831 4863 
L 2375 4863 
z
" transform="scale(0.015625)"/>
      <path id="DejaVuSans-4e" d="M 628 4666 
L 1478 4666 
L 3547 763 
L 3547 4666 
L 4159 4666 
L 4159 0 
L 3309 0 
L 1241 3903 
L 1241 0 
L 628 0 
L 628 4666 
z
" transform="scale(0.015625)"/>
      <path id="DejaVuSans-68" d="M 3513 2113 
L 3513 0 
L 2938 0 
L 2938 2094 
Q 2938 2591 2744 2837 
Q 2550 3084 2163 3084 
Q 1697 3084 1428 2787 
Q 1159 2491 1159 1978 
L 1159 0 
L 581 0 
L 581 4863 
L 1159 4863 
L 1159 2956 
Q 1366 3272 1645 3428 
Q 1925 3584 2291 3584 
Q 2894 3584 3203 3211 
Q 3513 2838 3513 2113 
z
" transform="scale(0.015625)"/>
      <path id="DejaVuSans-29" d="M 513 4856 
L 1013 4856 
Q 1481 4119 1714 3412 
Q 1947 2706 1947 2009 
Q 1947 1309 1714 600 
Q 1481 -109 1013 -844 
L 513 -844 
Q 928 -128 1133 580 
Q 1338 1288 1338 2009 
Q 1338 2731 1133 3434 
Q 928 4138 513 4856 
z
" transform="scale(0.015625)"/>
     </defs>
     <use xlink:href="#DejaVuSans-42"/>
     <use xlink:href="#DejaVuSans-6f" x="68.603516"/>
     <use xlink:href="#DejaVuSans-74" x="129.785156"/>
     <use xlink:href="#DejaVuSans-74" x="168.994141"/>
     <use xlink:href="#DejaVuSans-72" x="208.203125"/>
     <use xlink:href="#DejaVuSans-6f" x="247.066406"/>
     <use xlink:href="#DejaVuSans-70" x="308.248047"/>
     <use xlink:href="#DejaVuSans-20" x="371.724609"/>
     <use xlink:href="#DejaVuSans-28" x="403.511719"/>
     <use xlink:href="#DejaVuSans-44" x="442.525391"/>
     <use xlink:href="#DejaVuSans-fc" x="519.527344"/>
     <use xlink:href="#DejaVuSans-73" x="582.90625"/>
     <use xlink:href="#DejaVuSans-73" x="635.005859"/>
     <use xlink:href="#DejaVuSans-65" x="687.105469"/>
     <use xlink:href="#DejaVuSans-6c" x="748.628906"/>
     <use xlink:href="#DejaVuSans-64" x="776.412109"/>
     <use xlink:href="#DejaVuSans-6f" x="839.888672"/>
     <use xlink:href="#DejaVuSans-72" x="901.070312"/>
     <use xlink:href="#DejaVuSans-66" x="942.183594"/>
     <use xlink:href="#DejaVuSans-20" x="977.388672"/>
     <use xlink:href="#DejaVuSans-4e" x="1009.175781"/>
     <use xlink:href="#DejaVuSans-6f" x="1083.980469"/>
     <use xlink:href="#DejaVuSans-72" x="1145.162109"/>
     <use xlink:href="#DejaVuSans-74" x="1186.275391"/>
     <use xlink:href="#DejaVuSans-68" x="1225.484375"/>
     <use xlink:href="#DejaVuSans-29" x="1288.863281"/>
    </g>
   </g>
   <g id="text_2">
    <!-- Paderborn Low (Dortmund) -->
    <g style="fill: #ff0000" transform="translate(268.309043 170.445812) scale(0.07 -0.07)">
     <defs>
      <path id="DejaVuSans-50" d="M 1259 4147 
L 1259 2394 
L 2053 2394 
Q 2494 2394 2734 2622 
Q 2975 2850 2975 3272 
Q 2975 3691 2734 3919 
Q 2494 4147 2053 4147 
L 1259 4147 
z
M 628 4666 
L 2053 4666 
Q 2838 4666 3239 4311 
Q 3641 3956 3641 3272 
Q 3641 2581 3239 2228 
Q 2838 1875 2053 1875 
L 1259 1875 
L 1259 0 
L 628 0 
L 628 4666 
z
" transform="scale(0.015625)"/>
      <path id="DejaVuSans-61" d="M 2194 1759 
Q 1497 1759 1228 1600 
Q 959 1441 959 1056 
Q 959 750 1161 570 
Q 1363 391 1709 391 
Q 2188 391 2477 730 
Q 2766 1069 2766 1631 
L 2766 1759 
L 2194 1759 
z
M 3341 1997 
L 3341 0 
L 2766 0 
L 2766 531 
Q 2569 213 2275 61 
Q 1981 -91 1556 -91 
Q 1019 -91 701 211 
Q 384 513 384 1019 
Q 384 1609 779 1909 
Q 1175 2209 1959 2209 
L 2766 2209 
L 2766 2266 
Q 2766 2663 2505 2880 
Q 2244 3097 1772 3097 
Q 1472 3097 1187 3025 
Q 903 2953 641 2809 
L 641 3341 
Q 956 3463 1253 3523 
Q 1550 3584 1831 3584 
Q 2591 3584 2966 3190 
Q 3341 2797 3341 1997 
z
" transform="scale(0.015625)"/>
      <path id="DejaVuSans-62" d="M 3116 1747 
Q 3116 2381 2855 2742 
Q 2594 3103 2138 3103 
Q 1681 3103 1420 2742 
Q 1159 2381 1159 1747 
Q 1159 1113 1420 752 
Q 1681 391 2138 391 
Q 2594 391 2855 752 
Q 3116 1113 3116 1747 
z
M 1159 2969 
Q 1341 3281 1617 3432 
Q 1894 3584 2278 3584 
Q 2916 3584 3314 3078 
Q 3713 2572 3713 1747 
Q 3713 922 3314 415 
Q 2916 -91 2278 -91 
Q 1894 -91 1617 61 
Q 1341 213 1159 525 
L 1159 0 
L 581 0 
L 581 4863 
L 1159 4863 
L 1159 2969 
z
" transform="scale(0.015625)"/>
      <path id="DejaVuSans-6e" d="M 3513 2113 
L 3513 0 
L 2938 0 
L 2938 2094 
Q 2938 2591 2744 2837 
Q 2550 3084 2163 3084 
Q 1697 3084 1428 2787 
Q 1159 2491 1159 1978 
L 1159 0 
L 581 0 
L 581 3500 
L 1159 3500 
L 1159 2956 
Q 1366 3272 1645 3428 
Q 1925 3584 2291 3584 
Q 2894 3584 3203 3211 
Q 3513 2838 3513 2113 
z
" transform="scale(0.015625)"/>
      <path id="DejaVuSans-4c" d="M 628 4666 
L 1259 4666 
L 1259 531 
L 3531 531 
L 3531 0 
L 628 0 
L 628 4666 
z
" transform="scale(0.015625)"/>
      <path id="DejaVuSans-77" d="M 269 3500 
L 844 3500 
L 1563 769 
L 2278 3500 
L 2956 3500 
L 3675 769 
L 4391 3500 
L 4966 3500 
L 4050 0 
L 3372 0 
L 2619 2869 
L 1863 0 
L 1184 0 
L 269 3500 
z
" transform="scale(0.015625)"/>
      <path id="DejaVuSans-6d" d="M 3328 2828 
Q 3544 3216 3844 3400 
Q 4144 3584 4550 3584 
Q 5097 3584 5394 3201 
Q 5691 2819 5691 2113 
L 5691 0 
L 5113 0 
L 5113 2094 
Q 5113 2597 4934 2840 
Q 4756 3084 4391 3084 
Q 3944 3084 3684 2787 
Q 3425 2491 3425 1978 
L 3425 0 
L 2847 0 
L 2847 2094 
Q 2847 2600 2669 2842 
Q 2491 3084 2119 3084 
Q 1678 3084 1418 2786 
Q 1159 2488 1159 1978 
L 1159 0 
L 581 0 
L 581 3500 
L 1159 3500 
L 1159 2956 
Q 1356 3278 1631 3431 
Q 1906 3584 2284 3584 
Q 2666 3584 2933 3390 
Q 3200 3197 3328 2828 
z
" transform="scale(0.015625)"/>
      <path id="DejaVuSans-75" d="M 544 1381 
L 544 3500 
L 1119 3500 
L 1119 1403 
Q 1119 906 1312 657 
Q 1506 409 1894 409 
Q 2359 409 2629 706 
Q 2900 1003 2900 1516 
L 2900 3500 
L 3475 3500 
L 3475 0 
L 2900 0 
L 2900 538 
Q 2691 219 2414 64 
Q 2138 -91 1772 -91 
Q 1169 -91 856 284 
Q 544 659 544 1381 
z
M 1991 3584 
L 1991 3584 
z
" transform="scale(0.015625)"/>
     </defs>
     <use xlink:href="#DejaVuSans-50"/>
     <use xlink:href="#DejaVuSans-61" x="55.802734"/>
     <use xlink:href="#DejaVuSans-64" x="117.082031"/>
     <use xlink:href="#DejaVuSans-65" x="180.558594"/>
     <use xlink:href="#DejaVuSans-72" x="242.082031"/>
     <use xlink:href="#DejaVuSans-62" x="283.195312"/>
     <use xlink:href="#DejaVuSans-6f" x="346.671875"/>
     <use xlink:href="#DejaVuSans-72" x="407.853516"/>
     <use xlink:href="#DejaVuSans-6e" x="447.216797"/>
     <use xlink:href="#DejaVuSans-20" x="510.595703"/>
     <use xlink:href="#DejaVuSans-4c" x="542.382812"/>
     <use xlink:href="#DejaVuSans-6f" x="596.345703"/>
     <use xlink:href="#DejaVuSans-77" x="657.527344"/>
     <use xlink:href="#DejaVuSans-20" x="739.314453"/>
     <use xlink:href="#DejaVuSans-28" x="771.101562"/>
     <use xlink:href="#DejaVuSans-44" x="810.115234"/>
     <use xlink:href="#DejaVuSans-6f" x="887.117188"/>
     <use xlink:href="#DejaVuSans-72" x="948.298828"/>
     <use xlink:href="#DejaVuSans-74" x="989.412109"/>
     <use xlink:href="#DejaVuSans-6d" x="1028.621094"/>
     <use xlink:href="#DejaVuSans-75" x="1126.033203"/>
     <use xlink:href="#DejaVuSans-6e" x="1189.412109"/>
     <use xlink:href="#DejaVuSans-64" x="1252.791016"/>
     <use xlink:href="#DejaVuSans-29" x="1316.267578"/>
    </g>
   </g>
   <g id="text_3">
    <!-- Düsseldorf -->
    <g transform="translate(204.068437 64.373524) scale(0.12 -0.12)">
     <use xlink:href="#DejaVuSans-44"/>
     <use xlink:href="#DejaVuSans-fc" x="77.001953"/>
     <use xlink:href="#DejaVuSans-73" x="140.380859"/>
     <use xlink:href="#DejaVuSans-73" x="192.480469"/>
     <use xlink:href="#DejaVuSans-65" x="244.580078"/>
     <use xlink:href="#DejaVuSans-6c" x="306.103516"/>
     <use xlink:href="#DejaVuSans-64" x="333.886719"/>
     <use xlink:href="#DejaVuSans-6f" x="397.363281"/>
     <use xlink:href="#DejaVuSans-72" x="458.544922"/>
     <use xlink:href="#DejaVuSans-66" x="499.658203"/>
    </g>
   </g>
  </g>
 </g>
 <defs>
  <clipPath id="p1d0138b7df">
   <rect x="57.6" y="70.373524" width="357.12" height="208.308951"/>
  </clipPath>
 </defs>
</svg>
