<?xml version="1.0" encoding="utf-8" standalone="no"?>
<!DOCTYPE svg PUBLIC "-//W3C//DTD SVG 1.1//EN"
  "http://www.w3.org/Graphics/SVG/1.1/DTD/svg11.dtd">
<svg xmlns:xlink="http://www.w3.org/1999/xlink" width="460.8pt" height="345.6pt" viewBox="0 0 460.8 345.6" xmlns="http://www.w3.org/2000/svg" version="1.1">
 <metadata>
  <rdf:RDF xmlns:dc="http://purl.org/dc/elements/1.1/" xmlns:cc="http://creativecommons.org/ns#" xmlns:rdf="http://www.w3.org/1999/02/22-rdf-syntax-ns#">
   <cc:Work>
    <dc:type rdf:resource="http://purl.org/dc/dcmitype/StillImage"/>
    <dc:date>2023-12-08T20:00:58.792707</dc:date>
    <dc:format>image/svg+xml</dc:format>
    <dc:creator>
     <cc:Agent>
      <dc:title>Matplotlib v3.7.2, https://matplotlib.org/</dc:title>
     </cc:Agent>
    </dc:creator>
   </cc:Work>
  </rdf:RDF>
 </metadata>
 <defs>
  <style type="text/css">*{stroke-linejoin: round; stroke-linecap: butt}</style>
 </defs>
 <g id="figure_1">
  <g id="patch_1">
   <path d="M 0 345.6 
L 460.8 345.6 
L 460.8 0 
L 0 0 
z
" style="fill: #ffffff"/>
  </g>
  <g id="axes_1">
   <g id="patch_2">
    <path d="M 215.434754 241.430059 
L 214.361364 255.965585 
L 214.361364 255.965585 
L 205.947202 248.769008 
L 205.947202 248.769008 
L 169.190754 262.485025 
L 169.190754 262.485025 
L 152.992976 268.387267 
L 152.992976 268.387267 
L 149.557626 262.907023 
L 149.557626 262.907023 
L 151.271403 246.61425 
L 151.271403 246.61425 
L 181.904851 250.745701 
L 181.904851 250.745701 
L 191.461793 249.121676 
L 191.461793 249.121676 
L 198.90154 246.733761 
L 198.90154 246.733761 
L 215.434754 241.430059 
z
" clip-path="url(#p2655d8c839)" style="fill: #808080; opacity: 0.05; stroke: #808080; stroke-linejoin: miter"/>
   </g>
   <g id="patch_3">
    <path d="M 138.216016 244.898432 
L 151.271403 246.61425 
L 151.271403 246.61425 
L 149.557626 262.907023 
L 149.557626 262.907023 
L 138.216016 244.898432 
z
" clip-path="url(#p2655d8c839)" style="fill: #808080; opacity: 0.05; stroke: #808080; stroke-linejoin: miter"/>
   </g>
   <g id="patch_4">
    <path d="M 205.947202 248.769008 
L 214.361364 255.965585 
L 214.361364 255.965585 
L 211.45355 295.488 
L 211.45355 295.488 
L 177.589743 293.693695 
L 177.589743 293.693695 
L 165.58805 285.675507 
L 165.58805 285.675507 
L 162.480252 283.570364 
L 162.480252 283.570364 
L 152.992976 268.387267 
L 152.992976 268.387267 
L 169.190754 262.485025 
L 169.190754 262.485025 
L 205.947202 248.769008 
z
" clip-path="url(#p2655d8c839)" style="fill: #808080; opacity: 0.05; stroke: #808080; stroke-linejoin: miter"/>
   </g>
   <g id="patch_5">
    <path d="M 303.578359 199.171864 
L 314.153162 208.364902 
L 314.153162 208.364902 
L 283.338214 235.161163 
L 283.338214 235.161163 
L 281.878061 234.322347 
L 281.878061 234.322347 
L 277.942022 232.100385 
L 277.942022 232.100385 
L 278.067476 220.892676 
L 278.067476 220.892676 
L 278.187769 209.208761 
L 278.187769 209.208761 
L 272.623408 203.86233 
L 272.623408 203.86233 
L 298.960543 199.810604 
L 298.960543 199.810604 
L 303.578359 199.171864 
z
" clip-path="url(#p2655d8c839)" style="fill: #808080; opacity: 0.05; stroke: #808080; stroke-linejoin: miter"/>
   </g>
   <g id="patch_6">
    <path d="M 314.153162 208.364902 
L 321.033568 217.55126 
L 321.033568 217.55126 
L 325.589743 223.637398 
L 325.589743 223.637398 
L 316.428517 228.08608 
L 316.428517 228.08608 
L 307.351056 232.490148 
L 307.351056 232.490148 
L 286.293376 236.786958 
L 286.293376 236.786958 
L 283.338214 235.161163 
L 283.338214 235.161163 
L 298.688487 221.752291 
L 298.688487 221.752291 
L 314.153162 208.364902 
z
" clip-path="url(#p2655d8c839)" style="fill: #808080; opacity: 0.05; stroke: #808080; stroke-linejoin: miter"/>
   </g>
   <g id="patch_7">
    <path d="M 272.801843 164.350711 
L 315.856403 178.549192 
L 315.856403 178.549192 
L 317.702765 179.169929 
L 317.702765 179.169929 
L 316.463273 180.895975 
L 316.463273 180.895975 
L 318.806335 189.907802 
L 318.806335 189.907802 
L 306.889489 198.648133 
L 306.889489 198.648133 
L 303.578359 199.171864 
L 303.578359 199.171864 
L 298.960543 199.810604 
L 298.960543 199.810604 
L 272.623408 203.86233 
L 272.623408 203.86233 
L 263.989308 195.518641 
L 263.989308 195.518641 
L 269.708488 189.342039 
L 269.708488 189.342039 
L 272.033127 170.774228 
L 272.033127 170.774228 
L 272.801843 164.350711 
z
" clip-path="url(#p2655d8c839)" style="fill: #808080; opacity: 0.05; stroke: #808080; stroke-linejoin: miter"/>
   </g>
   <g id="patch_8">
    <path d="M 308.759722 55.672881 
L 326.182269 72.844317 
L 326.182269 72.844317 
L 343.352685 89.580441 
L 343.352685 89.580441 
L 320.703949 139.8758 
L 320.703949 139.8758 
L 311.34352 150.690532 
L 311.34352 150.690532 
L 309.852619 150.814208 
L 309.852619 150.814208 
L 289.833836 143.434292 
L 289.833836 143.434292 
L 284.154579 143.444029 
L 284.154579 143.444029 
L 263.260484 143.578384 
L 263.260484 143.578384 
L 273.199138 98.462305 
L 273.199138 98.462305 
L 276.124836 95.430447 
L 276.124836 95.430447 
L 277.069346 90.909585 
L 277.069346 90.909585 
L 308.759722 55.672881 
z
" clip-path="url(#p2655d8c839)" style="fill: #808080; opacity: 0.05; stroke: #808080; stroke-linejoin: miter"/>
   </g>
   <g id="patch_9">
    <path d="M 296.422611 53.568 
L 301.692391 54.324056 
L 301.692391 54.324056 
L 308.759722 55.672881 
L 308.759722 55.672881 
L 326.182269 72.844317 
L 326.182269 72.844317 
L 343.352685 89.580441 
L 343.352685 89.580441 
L 320.703949 139.8758 
L 320.703949 139.8758 
L 311.34352 150.690532 
L 311.34352 150.690532 
L 309.852619 150.814208 
L 309.852619 150.814208 
L 289.833836 143.434292 
L 289.833836 143.434292 
L 284.154579 143.444029 
L 284.154579 143.444029 
L 263.260484 143.578384 
L 263.260484 143.578384 
L 273.199138 98.462305 
L 273.199138 98.462305 
L 264.340879 74.352193 
L 264.340879 74.352193 
L 276.843288 66.265211 
L 276.843288 66.265211 
L 296.422611 53.568 
z
" clip-path="url(#p2655d8c839)" style="fill: #808080; opacity: 0.05; stroke: #808080; stroke-linejoin: miter"/>
   </g>
   <g id="patch_10">
    <path d="M 172.137767 111.587237 
L 210.205962 147.438915 
L 210.205962 147.438915 
L 206.933274 150.977117 
L 206.933274 150.977117 
L 203.146069 158.119131 
L 203.146069 158.119131 
L 209.648537 164.683421 
L 209.648537 164.683421 
L 213.038944 168.138316 
L 213.038944 168.138316 
L 215.787835 170.985819 
L 215.787835 170.985819 
L 215.7615 176.225204 
L 215.7615 176.225204 
L 153.747429 170.280464 
L 153.747429 170.280464 
L 160.434369 156.282688 
L 160.434369 156.282688 
L 162.517478 151.87982 
L 162.517478 151.87982 
L 165.813038 145.013359 
L 165.813038 145.013359 
L 166.712553 121.809299 
L 166.712553 121.809299 
L 162.530651 117.628477 
L 162.530651 117.628477 
L 172.137767 111.587237 
z
" clip-path="url(#p2655d8c839)" style="fill: #ffa500; opacity: 0.1; stroke: #ffa500; stroke-linejoin: miter"/>
   </g>
   <g id="patch_11">
    <path d="M 162.530651 117.628477 
L 166.712553 121.809299 
L 166.712553 121.809299 
L 165.813038 145.013359 
L 165.813038 145.013359 
L 162.517478 151.87982 
L 162.517478 151.87982 
L 160.434369 156.282688 
L 160.434369 156.282688 
L 153.747429 170.280464 
L 153.747429 170.280464 
L 128.967315 164.864311 
L 128.967315 164.864311 
L 129.205113 154.938684 
L 129.205113 154.938684 
L 132.532223 148.998357 
L 132.532223 148.998357 
L 133.848071 146.596197 
L 133.848071 146.596197 
L 137.697711 139.71152 
L 137.697711 139.71152 
L 143.27055 129.725841 
L 143.27055 129.725841 
L 162.530651 117.628477 
z
" clip-path="url(#p2655d8c839)" style="fill: #ffa500; opacity: 0.1; stroke: #ffa500; stroke-linejoin: miter"/>
   </g>
   <g id="patch_12">
    <path d="M 263.260484 143.578384 
L 284.154579 143.444029 
L 284.154579 143.444029 
L 272.801843 164.350711 
L 272.801843 164.350711 
L 272.033127 170.774228 
L 272.033127 170.774228 
L 269.708488 189.342039 
L 269.708488 189.342039 
L 263.989308 195.518641 
L 263.989308 195.518641 
L 251.646873 207.151024 
L 251.646873 207.151024 
L 231.481356 210.321272 
L 231.481356 210.321272 
L 230.494718 198.612252 
L 230.494718 198.612252 
L 229.98689 192.594704 
L 229.98689 192.594704 
L 230.247807 187.305617 
L 230.247807 187.305617 
L 215.723342 183.821058 
L 215.723342 183.821058 
L 215.754698 177.57892 
L 215.754698 177.57892 
L 215.767799 174.971763 
L 215.767799 174.971763 
L 215.787835 170.985819 
L 215.787835 170.985819 
L 213.038944 168.138316 
L 213.038944 168.138316 
L 209.648537 164.683421 
L 209.648537 164.683421 
L 203.146069 158.119131 
L 203.146069 158.119131 
L 206.933274 150.977117 
L 206.933274 150.977117 
L 210.205962 147.438915 
L 210.205962 147.438915 
L 213.938583 143.650249 
L 213.938583 143.650249 
L 226.853415 143.451977 
L 226.853415 143.451977 
L 235.048402 143.616693 
L 235.048402 143.616693 
L 246.422611 143.612137 
L 246.422611 143.612137 
L 263.260484 143.578384 
z
" clip-path="url(#p2655d8c839)" style="fill: #ffa500; opacity: 0.1; stroke: #ffa500; stroke-linejoin: miter"/>
   </g>
   <g id="line2d_1">
    <path d="M 215.434754 241.430059 
L 214.361364 255.965585 
L 214.361364 255.965585 
L 205.947202 248.769008 
L 205.947202 248.769008 
L 169.190754 262.485025 
L 169.190754 262.485025 
L 152.992976 268.387267 
L 152.992976 268.387267 
L 149.557626 262.907023 
L 149.557626 262.907023 
L 151.271403 246.61425 
L 151.271403 246.61425 
L 181.904851 250.745701 
L 181.904851 250.745701 
L 191.461793 249.121676 
L 191.461793 249.121676 
L 198.90154 246.733761 
L 198.90154 246.733761 
L 215.434754 241.430059 
L 215.434754 241.430059 
" clip-path="url(#p2655d8c839)" style="fill: none; stroke: #808080; stroke-width: 0.5; stroke-linecap: square"/>
   </g>
   <g id="line2d_2">
    <path d="M 138.216016 244.898432 
L 151.271403 246.61425 
L 151.271403 246.61425 
L 149.557626 262.907023 
L 149.557626 262.907023 
L 138.216016 244.898432 
L 138.216016 244.898432 
" clip-path="url(#p2655d8c839)" style="fill: none; stroke: #808080; stroke-width: 0.5; stroke-linecap: square"/>
   </g>
   <g id="line2d_3">
    <path d="M 205.947202 248.769008 
L 214.361364 255.965585 
L 214.361364 255.965585 
L 211.45355 295.488 
L 211.45355 295.488 
L 177.589743 293.693695 
L 177.589743 293.693695 
L 165.58805 285.675507 
L 165.58805 285.675507 
L 162.480252 283.570364 
L 162.480252 283.570364 
L 152.992976 268.387267 
L 152.992976 268.387267 
L 169.190754 262.485025 
L 169.190754 262.485025 
L 205.947202 248.769008 
L 205.947202 248.769008 
" clip-path="url(#p2655d8c839)" style="fill: none; stroke: #808080; stroke-width: 0.5; stroke-linecap: square"/>
   </g>
   <g id="line2d_4">
    <path d="M 303.578359 199.171864 
L 314.153162 208.364902 
L 314.153162 208.364902 
L 283.338214 235.161163 
L 283.338214 235.161163 
L 281.878061 234.322347 
L 281.878061 234.322347 
L 277.942022 232.100385 
L 277.942022 232.100385 
L 278.067476 220.892676 
L 278.067476 220.892676 
L 278.187769 209.208761 
L 278.187769 209.208761 
L 272.623408 203.86233 
L 272.623408 203.86233 
L 298.960543 199.810604 
L 298.960543 199.810604 
L 303.578359 199.171864 
L 303.578359 199.171864 
" clip-path="url(#p2655d8c839)" style="fill: none; stroke: #808080; stroke-width: 0.5; stroke-linecap: square"/>
   </g>
   <g id="line2d_5">
    <path d="M 314.153162 208.364902 
L 321.033568 217.55126 
L 321.033568 217.55126 
L 325.589743 223.637398 
L 325.589743 223.637398 
L 316.428517 228.08608 
L 316.428517 228.08608 
L 307.351056 232.490148 
L 307.351056 232.490148 
L 286.293376 236.786958 
L 286.293376 236.786958 
L 283.338214 235.161163 
L 283.338214 235.161163 
L 298.688487 221.752291 
L 298.688487 221.752291 
L 314.153162 208.364902 
L 314.153162 208.364902 
" clip-path="url(#p2655d8c839)" style="fill: none; stroke: #808080; stroke-width: 0.5; stroke-linecap: square"/>
   </g>
   <g id="line2d_6">
    <path d="M 272.801843 164.350711 
L 315.856403 178.549192 
L 315.856403 178.549192 
L 317.702765 179.169929 
L 317.702765 179.169929 
L 316.463273 180.895975 
L 316.463273 180.895975 
L 318.806335 189.907802 
L 318.806335 189.907802 
L 306.889489 198.648133 
L 306.889489 198.648133 
L 303.578359 199.171864 
L 303.578359 199.171864 
L 298.960543 199.810604 
L 298.960543 199.810604 
L 272.623408 203.86233 
L 272.623408 203.86233 
L 263.989308 195.518641 
L 263.989308 195.518641 
L 269.708488 189.342039 
L 269.708488 189.342039 
L 272.033127 170.774228 
L 272.033127 170.774228 
L 272.801843 164.350711 
L 272.801843 164.350711 
" clip-path="url(#p2655d8c839)" style="fill: none; stroke: #808080; stroke-width: 0.5; stroke-linecap: square"/>
   </g>
   <g id="line2d_7">
    <path d="M 308.759722 55.672881 
L 326.182269 72.844317 
L 326.182269 72.844317 
L 343.352685 89.580441 
L 343.352685 89.580441 
L 320.703949 139.8758 
L 320.703949 139.8758 
L 311.34352 150.690532 
L 311.34352 150.690532 
L 309.852619 150.814208 
L 309.852619 150.814208 
L 289.833836 143.434292 
L 289.833836 143.434292 
L 284.154579 143.444029 
L 284.154579 143.444029 
L 263.260484 143.578384 
L 263.260484 143.578384 
L 273.199138 98.462305 
L 273.199138 98.462305 
L 276.124836 95.430447 
L 276.124836 95.430447 
L 277.069346 90.909585 
L 277.069346 90.909585 
L 308.759722 55.672881 
L 308.759722 55.672881 
" clip-path="url(#p2655d8c839)" style="fill: none; stroke: #808080; stroke-width: 0.5; stroke-linecap: square"/>
   </g>
   <g id="line2d_8">
    <path d="M 296.422611 53.568 
L 301.692391 54.324056 
L 301.692391 54.324056 
L 308.759722 55.672881 
L 308.759722 55.672881 
L 326.182269 72.844317 
L 326.182269 72.844317 
L 343.352685 89.580441 
L 343.352685 89.580441 
L 320.703949 139.8758 
L 320.703949 139.8758 
L 311.34352 150.690532 
L 311.34352 150.690532 
L 309.852619 150.814208 
L 309.852619 150.814208 
L 289.833836 143.434292 
L 289.833836 143.434292 
L 284.154579 143.444029 
L 284.154579 143.444029 
L 263.260484 143.578384 
L 263.260484 143.578384 
L 273.199138 98.462305 
L 273.199138 98.462305 
L 264.340879 74.352193 
L 264.340879 74.352193 
L 276.843288 66.265211 
L 276.843288 66.265211 
L 296.422611 53.568 
L 296.422611 53.568 
" clip-path="url(#p2655d8c839)" style="fill: none; stroke: #808080; stroke-width: 0.5; stroke-linecap: square"/>
   </g>
   <g id="line2d_9">
    <path d="M 172.137767 111.587237 
L 210.205962 147.438915 
L 210.205962 147.438915 
L 206.933274 150.977117 
L 206.933274 150.977117 
L 203.146069 158.119131 
L 203.146069 158.119131 
L 209.648537 164.683421 
L 209.648537 164.683421 
L 213.038944 168.138316 
L 213.038944 168.138316 
L 215.787835 170.985819 
L 215.787835 170.985819 
L 215.7615 176.225204 
L 215.7615 176.225204 
L 153.747429 170.280464 
L 153.747429 170.280464 
L 160.434369 156.282688 
L 160.434369 156.282688 
L 162.517478 151.87982 
L 162.517478 151.87982 
L 165.813038 145.013359 
L 165.813038 145.013359 
L 166.712553 121.809299 
L 166.712553 121.809299 
L 162.530651 117.628477 
L 162.530651 117.628477 
L 172.137767 111.587237 
L 172.137767 111.587237 
" clip-path="url(#p2655d8c839)" style="fill: none; stroke: #ffa500; stroke-width: 0.5; stroke-linecap: square"/>
   </g>
   <g id="line2d_10">
    <path d="M 162.530651 117.628477 
L 166.712553 121.809299 
L 166.712553 121.809299 
L 165.813038 145.013359 
L 165.813038 145.013359 
L 162.517478 151.87982 
L 162.517478 151.87982 
L 160.434369 156.282688 
L 160.434369 156.282688 
L 153.747429 170.280464 
L 153.747429 170.280464 
L 128.967315 164.864311 
L 128.967315 164.864311 
L 129.205113 154.938684 
L 129.205113 154.938684 
L 132.532223 148.998357 
L 132.532223 148.998357 
L 133.848071 146.596197 
L 133.848071 146.596197 
L 137.697711 139.71152 
L 137.697711 139.71152 
L 143.27055 129.725841 
L 143.27055 129.725841 
L 162.530651 117.628477 
L 162.530651 117.628477 
" clip-path="url(#p2655d8c839)" style="fill: none; stroke: #ffa500; stroke-width: 0.5; stroke-linecap: square"/>
   </g>
   <g id="line2d_11">
    <path d="M 263.260484 143.578384 
L 284.154579 143.444029 
L 284.154579 143.444029 
L 272.801843 164.350711 
L 272.801843 164.350711 
L 272.033127 170.774228 
L 272.033127 170.774228 
L 269.708488 189.342039 
L 269.708488 189.342039 
L 263.989308 195.518641 
L 263.989308 195.518641 
L 251.646873 207.151024 
L 251.646873 207.151024 
L 231.481356 210.321272 
L 231.481356 210.321272 
L 230.494718 198.612252 
L 230.494718 198.612252 
L 229.98689 192.594704 
L 229.98689 192.594704 
L 230.247807 187.305617 
L 230.247807 187.305617 
L 215.723342 183.821058 
L 215.723342 183.821058 
L 215.754698 177.57892 
L 215.754698 177.57892 
L 215.767799 174.971763 
L 215.767799 174.971763 
L 215.787835 170.985819 
L 215.787835 170.985819 
L 213.038944 168.138316 
L 213.038944 168.138316 
L 209.648537 164.683421 
L 209.648537 164.683421 
L 203.146069 158.119131 
L 203.146069 158.119131 
L 206.933274 150.977117 
L 206.933274 150.977117 
L 210.205962 147.438915 
L 210.205962 147.438915 
L 213.938583 143.650249 
L 213.938583 143.650249 
L 226.853415 143.451977 
L 226.853415 143.451977 
L 235.048402 143.616693 
L 235.048402 143.616693 
L 246.422611 143.612137 
L 246.422611 143.612137 
L 263.260484 143.578384 
L 263.260484 143.578384 
" clip-path="url(#p2655d8c839)" style="fill: none; stroke: #ffa500; stroke-width: 0.5; stroke-linecap: square"/>
   </g>
   <g id="text_1">
    <!-- NDG -->
    <g transform="translate(222.402188 35.472) scale(0.12 -0.12)">
     <defs>
      <path id="DejaVuSans-4e" d="M 628 4666 
L 1478 4666 
L 3547 763 
L 3547 4666 
L 4159 4666 
L 4159 0 
L 3309 0 
L 1241 3903 
L 1241 0 
L 628 0 
L 628 4666 
z
" transform="scale(0.015625)"/>
      <path id="DejaVuSans-44" d="M 1259 4147 
L 1259 519 
L 2022 519 
Q 2988 519 3436 956 
Q 3884 1394 3884 2338 
Q 3884 3275 3436 3711 
Q 2988 4147 2022 4147 
L 1259 4147 
z
M 628 4666 
L 1925 4666 
Q 3281 4666 3915 4102 
Q 4550 3538 4550 2338 
Q 4550 1131 3912 565 
Q 3275 0 1925 0 
L 628 0 
L 628 4666 
z
" transform="scale(0.015625)"/>
      <path id="DejaVuSans-47" d="M 3809 666 
L 3809 1919 
L 2778 1919 
L 2778 2438 
L 4434 2438 
L 4434 434 
Q 4069 175 3628 42 
Q 3188 -91 2688 -91 
Q 1594 -91 976 548 
Q 359 1188 359 2328 
Q 359 3472 976 4111 
Q 1594 4750 2688 4750 
Q 3144 4750 3555 4637 
Q 3966 4525 4313 4306 
L 4313 3634 
Q 3963 3931 3569 4081 
Q 3175 4231 2741 4231 
Q 1884 4231 1454 3753 
Q 1025 3275 1025 2328 
Q 1025 1384 1454 906 
Q 1884 428 2741 428 
Q 3075 428 3337 486 
Q 3600 544 3809 666 
z
" transform="scale(0.015625)"/>
     </defs>
     <use xlink:href="#DejaVuSans-4e"/>
     <use xlink:href="#DejaVuSans-44" x="74.804688"/>
     <use xlink:href="#DejaVuSans-47" x="151.806641"/>
    </g>
   </g>
  </g>
 </g>
 <defs>
  <clipPath id="p2655d8c839">
   <rect x="118.248046" y="41.472" width="235.823907" height="266.112"/>
  </clipPath>
 </defs>
</svg>
